<svg width="24.000000" height="24.000000" viewBox="0 0 24 24" fill="none" xmlns="http://www.w3.org/2000/svg" xmlns:xlink="http://www.w3.org/1999/xlink">
	<desc>
			Created with Pixso.
	</desc>
	<defs/>
	<path id="Vector" d="M10 7.63L10 11.27L10 12.72L10 16.36L13 16.36L13 12.72L13 11.27L13 7.63L10 7.63Z" fill="#000000" fill-opacity="1.000000" fill-rule="nonzero"/>
	<path id="Vector" d="M1 12.68C1.82 12.68 2.5 12.01 2.5 11.18C2.5 10.35 1.82 9.68 1 9.68C0.17 9.68 -0.5 10.35 -0.5 11.18C-0.5 12.01 0.17 12.68 1 12.68Z" fill="#000000" fill-opacity="1.000000" fill-rule="nonzero"/>
	<path id="Vector" d="M1 14.31C1.82 14.31 2.5 13.64 2.5 12.81C2.5 11.98 1.82 11.31 1 11.31C0.17 11.31 -0.5 11.98 -0.5 12.81C-0.5 13.64 0.17 14.31 1 14.31Z" fill="#000000" fill-opacity="1.000000" fill-rule="nonzero"/>
	<path id="Vector" d="M2.5 11.18L-0.5 11.18L-0.5 12.81L2.5 12.81L2.5 11.18Z" fill="#000000" fill-opacity="1.000000" fill-rule="nonzero"/>
	<path id="Vector" d="M22 14.31C22.82 14.31 23.5 13.64 23.5 12.81C23.5 11.98 22.82 11.31 22 11.31C21.17 11.31 20.5 11.98 20.5 12.81C20.5 13.64 21.17 14.31 22 14.31Z" fill="#000000" fill-opacity="1.000000" fill-rule="nonzero"/>
	<path id="Vector" d="M22 12.68C22.82 12.68 23.5 12.01 23.5 11.18C23.5 10.35 22.82 9.68 22 9.68C21.17 9.68 20.5 10.35 20.5 11.18C20.5 12.01 21.17 12.68 22 12.68Z" fill="#000000" fill-opacity="1.000000" fill-rule="nonzero"/>
	<path id="Vector" d="M20.5 12.81L23.5 12.81L23.5 11.18L20.5 11.18L20.5 12.81Z" fill="#000000" fill-opacity="1.000000" fill-rule="nonzero"/>
	<path id="Vector" d="M6.18 17.59C7 17.59 7.68 16.91 7.68 16.09C7.68 15.26 7 14.59 6.18 14.59C5.35 14.59 4.68 15.26 4.68 16.09C4.68 16.91 5.35 17.59 6.18 17.59Z" fill="#000000" fill-opacity="1.000000" fill-rule="nonzero"/>
	<path id="Vector" d="M6.18 19.22C7 19.22 7.68 18.55 7.68 17.72C7.68 16.89 7 16.22 6.18 16.22C5.35 16.22 4.68 16.89 4.68 17.72C4.68 18.55 5.35 19.22 6.18 19.22Z" fill="#000000" fill-opacity="1.000000" fill-rule="nonzero"/>
	<path id="Vector" d="M7.68 16.09L4.68 16.09L4.68 17.72L7.68 17.72L7.68 16.09Z" fill="#000000" fill-opacity="1.000000" fill-rule="nonzero"/>
	<path id="Vector" d="M6.18 7.77C7 7.77 7.68 7.1 7.68 6.27C7.68 5.44 7 4.77 6.18 4.77C5.35 4.77 4.68 5.44 4.68 6.27C4.68 7.1 5.35 7.77 6.18 7.77Z" fill="#000000" fill-opacity="1.000000" fill-rule="nonzero"/>
	<path id="Vector" d="M6.18 13.08C7 13.08 7.68 12.41 7.68 11.58C7.68 10.76 7 10.08 6.18 10.08C5.35 10.08 4.68 10.76 4.68 11.58C4.68 12.41 5.35 13.08 6.18 13.08Z" fill="#000000" fill-opacity="1.000000" fill-rule="nonzero"/>
	<path id="Vector" d="M7.68 6.27L4.68 6.27L4.68 11.62L7.68 11.62L7.68 6.27Z" fill="#000000" fill-opacity="1.000000" fill-rule="nonzero"/>
	<path id="Vector" d="M16.81 9.41C17.64 9.41 18.31 8.73 18.31 7.91C18.31 7.08 17.64 6.41 16.81 6.41C15.99 6.41 15.31 7.08 15.31 7.91C15.31 8.73 15.99 9.41 16.81 9.41Z" fill="#000000" fill-opacity="1.000000" fill-rule="nonzero"/>
	<path id="Vector" d="M16.81 7.77C17.64 7.77 18.31 7.1 18.31 6.27C18.31 5.44 17.64 4.77 16.81 4.77C15.99 4.77 15.31 5.44 15.31 6.27C15.31 7.1 15.99 7.77 16.81 7.77Z" fill="#000000" fill-opacity="1.000000" fill-rule="nonzero"/>
	<path id="Vector" d="M15.31 7.9L18.31 7.9L18.31 6.27L15.31 6.27L15.31 7.9Z" fill="#000000" fill-opacity="1.000000" fill-rule="nonzero"/>
	<path id="Vector" d="M11.5 4.63C12.32 4.63 13 3.96 13 3.13C13 2.3 12.32 1.63 11.5 1.63C10.67 1.63 10 2.3 10 3.13C10 3.96 10.67 4.63 11.5 4.63Z" fill="#000000" fill-opacity="1.000000" fill-rule="nonzero"/>
	<path id="Vector" d="M11.5 3C12.32 3 13 2.32 13 1.5C13 0.67 12.32 0 11.5 0C10.67 0 10 0.67 10 1.5C10 2.32 10.67 3 11.5 3Z" fill="#000000" fill-opacity="1.000000" fill-rule="nonzero"/>
	<path id="Vector" d="M10 3.13L13 3.13L13 1.5L10 1.5L10 3.13Z" fill="#000000" fill-opacity="1.000000" fill-rule="nonzero"/>
	<path id="Vector" d="M11.5 24C12.32 24 13 23.32 13 22.5C13 21.67 12.32 21 11.5 21C10.67 21 10 21.67 10 22.5C10 23.32 10.67 24 11.5 24Z" fill="#000000" fill-opacity="1.000000" fill-rule="nonzero"/>
	<path id="Vector" d="M11.5 22.36C12.32 22.36 13 21.69 13 20.86C13 20.03 12.32 19.36 11.5 19.36C10.67 19.36 10 20.03 10 20.86C10 21.69 10.67 22.36 11.5 22.36Z" fill="#000000" fill-opacity="1.000000" fill-rule="nonzero"/>
	<path id="Vector" d="M10 22.5L13 22.5L13 20.86L10 20.86L10 22.5Z" fill="#000000" fill-opacity="1.000000" fill-rule="nonzero"/>
	<path id="Vector" d="M16.81 19.22C17.64 19.22 18.31 18.55 18.31 17.72C18.31 16.89 17.64 16.22 16.81 16.22C15.99 16.22 15.31 16.89 15.31 17.72C15.31 18.55 15.99 19.22 16.81 19.22Z" fill="#000000" fill-opacity="1.000000" fill-rule="nonzero"/>
	<path id="Vector" d="M16.81 13.91C17.64 13.91 18.31 13.23 18.31 12.41C18.31 11.58 17.64 10.91 16.81 10.91C15.99 10.91 15.31 11.58 15.31 12.41C15.31 13.23 15.99 13.91 16.81 13.91Z" fill="#000000" fill-opacity="1.000000" fill-rule="nonzero"/>
	<path id="Vector" d="M15.31 17.72L18.31 17.72L18.31 12.4L15.31 12.4L15.31 17.72Z" fill="#000000" fill-opacity="1.000000" fill-rule="nonzero"/>
	<path id="Vector" d="M11.5 9.13C12.32 9.13 13 8.46 13 7.63C13 6.8 12.32 6.13 11.5 6.13C10.67 6.13 10 6.8 10 7.63C10 8.46 10.67 9.13 11.5 9.13Z" fill="#000000" fill-opacity="1.000000" fill-rule="nonzero"/>
	<path id="Vector" d="M11.5 17.86C12.32 17.86 13 17.19 13 16.36C13 15.53 12.32 14.86 11.5 14.86C10.67 14.86 10 15.53 10 16.36C10 17.19 10.67 17.86 11.5 17.86Z" fill="#000000" fill-opacity="1.000000" fill-rule="nonzero"/>
</svg>
