<svg width="19.000000" height="19.000000" viewBox="0 0 19 19" fill="none" xmlns="http://www.w3.org/2000/svg" xmlns:xlink="http://www.w3.org/1999/xlink">
	<desc>
			Created with Pixso.
	</desc>
	<defs/>
	<path id="instagram" d="M0.27 2.72C-0.34 3.92 -0.34 5.49 -0.34 8.62L-0.34 9.37C-0.34 12.5 -0.34 14.07 0.27 15.27C0.81 16.32 1.67 17.18 2.72 17.72C3.92 18.33 5.49 18.33 8.62 18.33L9.37 18.33C12.5 18.33 14.07 18.33 15.27 17.72C16.32 17.18 17.18 16.32 17.72 15.27C18.33 14.07 18.33 12.5 18.33 9.37L18.33 8.62C18.33 5.49 18.33 3.92 17.72 2.72C17.18 1.67 16.32 0.81 15.27 0.27C14.07 -0.34 12.5 -0.34 9.37 -0.34L8.62 -0.34C5.49 -0.34 3.92 -0.34 2.72 0.27C1.67 0.81 0.81 1.67 0.27 2.72ZM9.37 1.53L8.62 1.53C7.02 1.53 5.94 1.53 5.1 1.6C4.28 1.67 3.86 1.79 3.57 1.94C2.86 2.29 2.29 2.86 1.94 3.57C1.79 3.86 1.67 4.28 1.6 5.1C1.53 5.94 1.53 7.02 1.53 8.62L1.53 9.37C1.53 10.97 1.53 12.05 1.6 12.89C1.67 13.71 1.79 14.13 1.94 14.42C2.29 15.13 2.86 15.7 3.57 16.06C3.86 16.2 4.28 16.33 5.1 16.39C5.94 16.46 7.02 16.46 8.62 16.46L9.37 16.46C10.97 16.46 12.05 16.46 12.89 16.39C13.71 16.33 14.13 16.2 14.42 16.06C15.13 15.7 15.7 15.13 16.05 14.42C16.2 14.13 16.32 13.71 16.39 12.89C16.46 12.05 16.46 10.97 16.46 9.37L16.46 8.62C16.46 7.02 16.46 5.94 16.39 5.1C16.32 4.28 16.2 3.86 16.05 3.57C15.7 2.86 15.13 2.29 14.42 1.94C14.13 1.79 13.71 1.67 12.89 1.6C12.05 1.53 10.97 1.53 9.37 1.53ZM15.53 3.86C15.53 4.64 14.9 5.26 14.13 5.26C13.36 5.26 12.73 4.64 12.73 3.86C12.73 3.09 13.36 2.46 14.13 2.46C14.9 2.46 15.53 3.09 15.53 3.86ZM9 13.66C11.57 13.66 13.66 11.57 13.66 9C13.66 6.42 11.57 4.33 9 4.33C6.42 4.33 4.33 6.42 4.33 9C4.33 11.57 6.42 13.66 9 13.66ZM9 11.8C10.54 11.8 11.8 10.54 11.8 9C11.8 7.45 10.54 6.2 9 6.2C7.45 6.2 6.2 7.45 6.2 9C6.2 10.54 7.45 11.8 9 11.8Z" fill="#000000" fill-opacity="1.000000" fill-rule="evenodd"/>
</svg>
