<svg width="24.000000" height="24.000000" viewBox="0 0 24 24" fill="none" xmlns="http://www.w3.org/2000/svg" xmlns:xlink="http://www.w3.org/1999/xlink">
	<desc>
			Created with Pixso.
	</desc>
	<defs/>
	<path id="spotify" d="M11.5 0C9.12 0 6.8 0.7 4.83 2.02C2.85 3.34 1.32 5.21 0.41 7.4C-0.5 9.6 -0.74 12.01 -0.27 14.34C0.19 16.66 1.33 18.8 3.01 20.48C4.69 22.16 6.83 23.3 9.15 23.76C11.48 24.23 13.89 23.99 16.09 23.08C18.28 22.17 20.15 20.64 21.47 18.66C22.79 16.69 23.5 14.37 23.5 12C23.5 8.81 22.23 5.76 19.98 3.51C17.73 1.26 14.68 0 11.5 0ZM17 17.3C16.95 17.39 16.88 17.46 16.8 17.52C16.72 17.58 16.63 17.62 16.54 17.64C16.44 17.66 16.34 17.67 16.24 17.65C16.15 17.64 16.05 17.6 15.97 17.55C13.15 15.83 9.61 15.44 5.43 16.39C5.34 16.41 5.24 16.42 5.14 16.4C5.05 16.39 4.95 16.35 4.87 16.3C4.79 16.25 4.72 16.18 4.66 16.1C4.6 16.02 4.56 15.93 4.54 15.84C4.52 15.74 4.52 15.64 4.53 15.54C4.55 15.45 4.58 15.35 4.63 15.27C4.68 15.19 4.75 15.11 4.83 15.06C4.91 15 5 14.96 5.1 14.93C9.67 13.89 13.59 14.34 16.75 16.28C16.92 16.38 17.04 16.54 17.09 16.74C17.14 16.93 17.1 17.13 17 17.3ZM18.47 14.04C18.33 14.24 18.13 14.39 17.89 14.44C17.65 14.5 17.4 14.46 17.18 14.34C13.54 12.31 9.24 11.81 5.23 12.94C5.11 13.01 4.97 13.05 4.83 13.06C4.68 13.07 4.54 13.05 4.41 13C4.27 12.94 4.16 12.86 4.06 12.75C3.96 12.65 3.89 12.52 3.85 12.39C3.81 12.25 3.8 12.1 3.82 11.96C3.84 11.82 3.89 11.69 3.97 11.57C4.05 11.45 4.16 11.35 4.28 11.28C4.41 11.21 4.54 11.16 4.69 11.15C6.93 10.51 9.27 10.32 11.58 10.59C13.9 10.87 16.13 11.6 18.16 12.75C18.37 12.89 18.51 13.09 18.57 13.33C18.63 13.57 18.59 13.82 18.47 14.04ZM18.59 10.64C14.76 8.34 8.35 8.13 4.66 9.25C4.37 9.33 4.07 9.3 3.8 9.16C3.54 9.02 3.35 8.78 3.26 8.5C3.17 8.21 3.2 7.91 3.34 7.65C3.48 7.38 3.72 7.19 4.01 7.1C8.25 5.82 15.29 6.07 19.74 8.7C19.97 8.86 20.13 9.11 20.19 9.38C20.24 9.66 20.19 9.95 20.05 10.19C19.9 10.43 19.67 10.61 19.4 10.69C19.13 10.77 18.84 10.74 18.59 10.62L18.59 10.64Z" fill="#000000" fill-opacity="1.000000" fill-rule="nonzero"/>
</svg>
