<svg width="56.000000" height="46.000000" viewBox="0 0 56 46" fill="none" xmlns="http://www.w3.org/2000/svg" xmlns:xlink="http://www.w3.org/1999/xlink">
	<desc>
			Created with Pixso.
	</desc>
	<defs/>
	<path id="twitter" d="M17.57 46C11.1 46 5.07 44.11 0 40.87C4.31 41.15 11.91 40.48 16.64 35.96C9.53 35.64 6.32 30.18 5.9 27.85C6.5 28.08 9.39 28.36 11.01 27.71C2.83 25.65 1.57 18.47 1.85 16.28C3.39 17.35 5.99 17.72 7.01 17.63C-0.62 12.17 2.13 3.96 3.48 2.19C8.95 9.77 17.16 14.03 27.31 14.27C27.12 13.43 27.02 12.56 27.02 11.66C27.02 5.22 32.22 0 38.64 0C42 0 45.02 1.42 47.15 3.7C49.39 3.18 52.76 1.95 54.41 0.88C53.58 3.87 50.99 6.36 49.43 7.28C50.8 7.07 54.52 6.36 56 5.36C55.27 7.04 52.52 9.83 50.27 11.39C50.69 29.87 36.55 46 17.57 46Z" fill="#000000" fill-opacity="1.000000" fill-rule="nonzero"/>
</svg>
