<svg width="21.000000" height="15.000000" viewBox="0 0 21 15" fill="none" xmlns="http://www.w3.org/2000/svg" xmlns:xlink="http://www.w3.org/1999/xlink">
	<desc>
			Created with Pixso.
	</desc>
	<defs/>
	<path id="Subtract" d="M0.18335 2.45605C0.279785 0.97168 1.47296 -0.191406 2.95837 -0.265137C5.10931 -0.371582 8.18359 -0.5 10.5 -0.5C12.8164 -0.5 15.8907 -0.371582 18.0416 -0.265137C19.527 -0.191406 20.7202 0.97168 20.8167 2.45605C20.909 3.87793 21 5.62744 21 7C21 8.37256 20.909 10.1221 20.8167 11.5439C20.7202 13.0283 19.527 14.1914 18.0416 14.2651C15.8907 14.3716 12.8164 14.5 10.5 14.5C8.18359 14.5 5.10931 14.3716 2.95837 14.2651C1.47296 14.1914 0.279785 13.0283 0.18335 11.5439C0.0910034 10.1221 0 8.37256 0 7C0 5.62744 0.0910034 3.87793 0.18335 2.45605ZM14.25 7L8.25 4L8.25 10L14.25 7Z" clip-rule="evenodd" fill="#000000" fill-opacity="1.000000" fill-rule="evenodd"/>
</svg>
