<svg width="68.000000" height="21.000000" viewBox="0 0 68 21" fill="none" xmlns="http://www.w3.org/2000/svg" xmlns:xlink="http://www.w3.org/1999/xlink">
	<desc>
			Created with Pixso.
	</desc>
	<defs/>
	<path id="Vector" d="M14.6 6.92C12.86 8.51 11.16 9.89 9.54 11.59C7.16 14.08 4.94 16.73 2.65 19.3C2.05 19.96 1.58 20.94 0.44 20.42C-0.3 20.08 -0.3 19.23 0.41 17.82C0.83 17.01 1.31 16.22 1.86 15.49C5 11.34 8.71 7.75 12.99 4.77C13.72 4.27 14.52 3.81 15.36 3.52C16.96 2.99 18.19 3.91 18.04 5.59C17.95 6.68 17.57 7.76 17.25 8.82C16.62 10.82 15.9 12.78 15.31 14.8C15.15 15.36 14.94 16.32 15.28 16.74C15.86 17.36 17.6 15.57 18.37 14.75C20.74 12.24 23.03 9.66 25.37 7.12C27.71 4.58 30.3 2.29 33.32 0.57C34.2 0.07 35.15 -0.36 36.12 -0.62C37.69 -1.04 38.94 0 38.83 1.64C38.78 2.43 38.55 3.24 38.21 3.96C37.34 5.76 36.35 7.49 35.45 9.26C34.5 11.12 33.51 12.97 33.16 15.49C33.82 14.9 34.25 14.56 34.62 14.15C37 11.58 39.33 8.97 41.74 6.42C43.94 4.1 46.28 1.94 49.11 0.42C50.18 -0.15 51.38 -0.59 52.58 -0.76C54.23 -0.97 55.36 0.29 55.04 1.92C54.8 3.13 54.28 4.29 53.77 5.4C52.78 7.5 51.7 9.55 50.68 11.62C50.45 12.08 49.75 13.16 50.38 13.27C51.06 12.55 51.74 11.82 52.43 11.12C54.25 9.21 56.04 7.27 57.92 5.42C59.62 3.74 61.5 2.29 63.91 1.75C65.94 1.29 67.38 2.55 67.05 4.61C66.89 5.59 66.56 6.61 66.1 7.5C64.1 11.44 62.03 15.34 59.97 19.26C59.74 19.68 59.48 20.12 59.12 20.42C58.78 20.69 58.21 21 57.88 20.88C57.56 20.76 56.96 20.33 57.03 19.47C57.1 18.69 57.33 18.11 57.64 17.4C59.08 14.15 60.59 10.94 62.08 7.72C62.49 6.85 62.92 6 63.34 5.13C63.49 4.88 63.45 4.84 63.37 4.74C62.98 4.54 61.89 5.36 61.45 5.8C58.89 8.26 56.37 10.75 53.86 13.26C52.87 14.25 51.97 15.33 50.98 16.32C50.16 17.13 49.16 17.59 48.04 17.05C46.91 16.51 46.6 15.37 46.79 14.29C47.06 12.7 47.4 11.09 48.05 9.64C49.03 7.44 50.3 5.35 51.44 3.21C51.63 2.84 51.79 2.45 52.1 1.75C51.4 2.05 50.96 2.17 50.57 2.38C48 3.82 45.82 5.76 43.85 7.91C41.5 10.5 39.29 13.22 36.96 15.85C36.04 16.89 35.09 17.96 34 18.8C31.87 20.45 29.74 19.57 29.47 16.9C29.35 15.64 29.54 14.31 29.84 13.08C30.58 9.95 32.28 7.23 33.87 4.48C34.21 3.9 34.55 3.32 34.77 2.66C32.15 3.62 30.04 5.27 28.13 7.14C25.17 10.04 22.36 13.11 19.47 16.06C18.72 16.82 17.9 17.55 16.99 18.11C15.44 19.04 13.76 18.32 13.39 16.56C13.1 15.28 13.09 13.85 13.29 12.55C13.58 10.65 14.82 7.14 14.77 6.92C14.77 6.72 14.6 6.92 14.6 6.92Z" fill="#81ADC8" fill-opacity="1.000000" fill-rule="nonzero"/>
</svg>
