<svg width="62.000000" height="67.000000" viewBox="0 0 62 67" fill="none" xmlns="http://www.w3.org/2000/svg" xmlns:xlink="http://www.w3.org/1999/xlink">
	<desc>
			Created with Pixso.
	</desc>
	<defs/>
	<path id="Vector" d="M61.15 18.74C61.57 19.2 61.63 19.87 61.3 20.42C61 20.92 60.75 21.35 60.45 21.76C57.36 26.03 55.67 28.27 52.62 32.58C51.85 33.66 49.98 36.98 49.26 38.11C49.25 38.13 49.25 38.14 49.24 38.15C48.59 39.13 46.99 39.06 46.47 37.99C46.47 37.99 46.47 37.98 46.46 37.98C45.7 36.31 45.09 34.59 44.39 32.9C42.45 28.23 39.76 24.18 35.28 21.53C33.65 20.56 33.62 19.86 34.88 18.46C35.36 17.95 35.83 17.42 36.34 16.96C41.31 12.53 44.74 7.06 47.3 0.97C47.46 0.59 47.79 0.29 48.14 -0.01C48.6 -0.39 49.26 -0.33 49.67 0.1C50.01 0.45 50.32 0.83 50.51 1.25C50.93 2.23 51.04 3.33 51.3 4.37C52.68 10.04 55.75 14.56 60.42 18.05C60.68 18.23 60.91 18.48 61.15 18.74ZM48.71 5.14C47.1 7.82 45.74 10.58 43.9 12.99C42.02 15.45 39.66 17.53 37.51 19.79C42.98 23.07 46.15 28.26 48.06 34.62C50.86 28.82 54.73 24.22 58.99 19.91C52.27 14.8 50.67 12.48 48.71 5.14Z" fill="#000000" fill-opacity="1.000000" fill-rule="nonzero"/>
	<path id="Vector" d="M10.09 65.47C8.86 61.97 7.79 58.41 6.43 54.97C5.1 51.64 3.13 48.68 0.28 46.39C-0.76 45.55 -0.73 44.79 0.12 43.84C4.91 38.63 8.6 32.72 11.24 26.16C11.52 25.45 12.28 24.33 12.81 24.33C14.25 23.99 14.76 26.79 14.81 27.05C16.02 33.66 20.11 38.47 24.7 42.96C26.19 44.42 26.31 44.87 24.85 46.28C19.34 51.56 15.68 58.06 12.54 64.9C11.55 67.28 10.24 65.89 10.09 65.47ZM1.94 44.78C4.86 46.63 6.8 49.11 8.21 51.91C9.57 54.66 10.58 57.57 11.71 60.36C14.34 54.49 17.89 49.06 23.28 44.93C18.06 40.82 13.95 36.14 12.69 29.42C10.43 35.46 6.84 40.48 1.94 44.78Z" fill="#81ADC8" fill-opacity="1.000000" fill-rule="nonzero"/>
	<path id="Vector" d="M47.1 50.9C44.1 54.92 42.28 59.51 40.6 64.18C40.49 64.48 40.14 66.17 38.85 66.16C38.48 66.16 37.88 65.58 37.64 65.12C36.63 63.04 35.99 60.73 34.71 58.86C33.19 56.64 31.1 54.81 29.34 52.77C29.09 52.47 28.99 51.79 29.15 51.43C29.47 50.75 30.02 50.21 30.45 49.58C32.66 46.33 34.83 43.06 37.1 39.86C37.58 39.2 38.51 38.4 39.07 38.4C40.45 38.38 40.72 39.47 40.96 40.24C42.07 43.79 43.98 46.75 46.76 49.2C47.75 50.13 47.22 50.73 47.1 50.9ZM31.89 51.83C35.11 54.12 37.31 57.42 38.63 61.12C40.6 57.52 42.6 53.85 44.66 50.06C41.9 48.15 39.97 44.59 39.09 41.96C36.68 45.26 34.3 48.53 31.89 51.83Z" fill="#CD4631" fill-opacity="1.000000" fill-rule="nonzero"/>
</svg>
