<svg width="56.000000" height="35.000000" viewBox="0 0 56 35" fill="none" xmlns="http://www.w3.org/2000/svg" xmlns:xlink="http://www.w3.org/1999/xlink">
	<desc>
			Created with Pixso.
	</desc>
	<defs/>
	<path id="Vector" d="M2.04 22.67C1.58 22.1 0.4 23.66 -0.46 22.91C-1.31 22.18 -0.13 21.17 0.36 20.53C1.2 19.42 2.21 18.42 3.3 17.56C3.72 17.23 4.69 16.72 5.18 17.35C5.49 17.74 5.57 18.09 5.07 19.04C4.8 19.54 4.66 19.81 3.95 20.68C3.95 20.95 4.35 21.25 4.66 21.52C11.18 27.19 18.53 31.04 27.32 31.46C36.11 31.89 43.66 29.17 49.41 22.24C49.92 21.63 50.62 21.06 50.72 20.35C50.79 19.83 50.56 19.55 49.84 18.55C49.61 18.24 49.5 17.48 49.92 17.01C50.61 16.2 51.36 16.62 51.61 16.86C53.36 18.57 54.71 20.57 55.7 22.37C55.89 22.97 55.58 23.45 55.27 23.75C55.01 24 54.33 23.97 53.93 23.82C53.45 23.64 53.06 23.22 52.44 22.76C46.16 31 37.66 34.92 27.37 34.54C17.24 34.21 8.37 29.89 2.04 22.67Z" fill="#000000" fill-opacity="1.000000" fill-rule="nonzero"/>
	<path id="Vector" d="M38.84 7.79C38.8 4.23 41.32 1.35 44.46 1.37C47.2 1.38 49.64 4.17 49.66 7.33C49.68 10.32 47.02 13.1 44.08 13.14C41.12 13.16 38.87 10.87 38.84 7.79ZM41.46 7.41C41.48 9.11 42.65 10.35 44.23 10.32C45.61 10.29 46.94 8.94 46.87 7.58C46.81 5.92 45.93 4.2 43.79 4.44C42.57 4.58 41.43 5.43 41.46 7.41Z" fill="#CD4631" fill-opacity="1.000000" fill-rule="nonzero"/>
	<path id="Vector" d="M14.73 5.05C14.7 8.22 12.11 10.9 9.05 10.91C6.14 10.93 3.82 8.36 3.96 5.04C4.11 0.96 6.37 -0.3 9.69 -0.6C12.29 -0.83 14.74 2.13 14.73 5.05ZM6.51 4.77C6.49 6.77 7.58 8.27 9.02 8.29C10.64 8.3 12.14 6.73 12.14 5.01C12.14 3.43 10.7 1.91 9.24 1.95C7.39 2 6.51 2.91 6.51 4.77Z" fill="#81ADC8" fill-opacity="1.000000" fill-rule="nonzero"/>
</svg>
