<svg width="66.000000" height="65.000000" viewBox="0 0 66 65" fill="none" xmlns="http://www.w3.org/2000/svg" xmlns:xlink="http://www.w3.org/1999/xlink">
	<desc>
			Created with Pixso.
	</desc>
	<defs/>
	<path id="Vector" d="M4.72 19.94C8.36 15.66 12.36 11.57 16.77 8.09C19.85 5.67 20.9 5.55 22.6 5.09C23.06 4.97 23.46 4.68 23.86 4.4C40.34 -7.24 61.34 1.01 65.4 21.54C68.1 35.16 61.15 48.69 49.21 54.22C49.02 54.31 48.73 54.34 48.64 54.49C46.27 58.2 41.45 59.63 38.51 60.36C37.91 60.58 37.45 61.2 36.91 61.61C36.49 61.92 36.07 62.26 35.6 62.48C20.06 69.68 3.37 60.04 -0.29 44.09C-0.8 41.84 -3.07 28.27 4.72 19.94ZM37.07 53.35C42.61 53.32 46.23 52.42 49.46 50.64C65.04 42.1 67.36 18.89 53.66 7.55C45.81 1.07 35.76 -0.03 26.93 6.18C16.43 13.56 12.63 28.69 18.51 40.12C22.73 48.34 29.43 52.88 37.07 53.35ZM42.37 56.86C43.04 56.61 43.14 56.44 43.03 56.36C43.03 56.36 42.75 56.36 42.27 56.37C30.08 57.29 20.92 52.44 15.49 41.51C10.18 30.84 11.46 20.36 17.73 10.33C17.23 10.57 16.83 10.87 16.46 11.21C8.01 18.86 5.52 31.82 10.4 42.9C14.89 53.12 24.33 59.19 34.95 58.43C37.44 58.25 39.89 57.4 42.37 56.86ZM6.58 21.73C6.59 21.34 6.22 21.83 6.17 21.89C5.98 22.15 5.79 22.42 5.63 22.69C3.39 26.46 2 30.53 1.81 34.91C1.36 44.87 4.86 53.13 13.29 58.77C18.9 62.52 25.13 63.29 31.64 61.26C22.12 60.3 14.7 55.88 9.69 47.73C4.68 39.61 3.88 30.88 6.58 21.73Z" fill="#000000" fill-opacity="1.000000" fill-rule="nonzero"/>
	<path id="Vector" d="M47.36 30.41C49.23 30.48 49.84 31.45 49.23 33.21C47.72 37.55 43.45 39.66 39.1 38.14C36.53 37.24 34.51 35.58 33.12 33.23C32.05 31.41 32.52 30.37 34.62 30.23C36.81 30.09 45.32 30.33 47.36 30.41ZM46.94 32.52C43.21 32.52 39.56 32.52 35.88 32.52C39.62 36.87 45.14 36.95 46.94 32.52Z" fill="#000000" fill-opacity="1.000000" fill-rule="nonzero"/>
	<path id="Vector" d="M32.13 22.73C32.14 24.85 30.11 26.77 27.89 26.75C25.95 26.74 24.6 24.99 24.59 23.14C24.56 21.28 26.46 19.46 28.54 19.4C30.54 19.33 32.13 20.8 32.13 22.73ZM28.07 21.39C27.06 21.55 26.75 22.5 26.83 23.22C26.94 24.26 27.73 24.52 28.22 24.53C28.68 24.55 29.58 24.09 29.77 23.19C30.02 22.29 29.5 21.05 28.07 21.39Z" fill="#CD4631" fill-opacity="1.000000" fill-rule="nonzero"/>
	<path id="Vector" d="M58.01 23.3C57.98 25.35 56.53 26.85 54.59 26.84C52.51 26.82 51.01 25.13 51.07 22.87C51.13 20.9 52.59 19.39 54.41 19.43C56.29 19.48 58.03 21.35 58.01 23.3ZM56.14 23.25C56.14 22.2 55.58 21.5 54.72 21.5C54.19 21.5 53.29 21.91 53.29 23.02C53.29 24.95 54.72 24.85 54.72 24.85C55.48 24.82 56.14 24.51 56.14 23.25Z" fill="#81ADC8" fill-opacity="1.000000" fill-rule="nonzero"/>
</svg>
