<svg width="48.000000" height="63.000000" viewBox="0 0 48 63" fill="none" xmlns="http://www.w3.org/2000/svg" xmlns:xlink="http://www.w3.org/1999/xlink">
	<desc>
			Created with Pixso.
	</desc>
	<defs/>
	<path id="Vector" d="M38.17 14.81C37.84 18.16 37.59 20.95 37.25 23.72C37.06 25.24 36.44 26.55 34.73 26.92C33.31 27.22 31.84 26.43 30.98 24.68C30.16 23.01 29.56 21.2 28.94 19.43C27.14 14.34 24.36 9.82 20.92 5.69C19.85 4.4 18.8 3.11 17.56 1.62C17.29 2.53 17.08 3.26 16.86 3.99C14.56 11.94 13.77 20.04 14.12 28.29C14.23 30.95 13.92 33.68 13.54 36.33C13.3 38.04 12.66 39.77 10.6 40.15C9.13 40.42 7.66 39.2 6.77 36.98C6.18 35.49 5.78 33.91 5.24 32.39C4.94 31.54 4.51 30.74 4.12 29.84C-0.85 35.88 2.94 55.8 9.56 58.71C9.59 53.38 12.04 48.96 14.94 44.79C19.04 38.89 21.27 32.36 22.02 25.27C22.07 24.74 22.18 24.2 22.28 23.68C22.74 21.27 23.73 20.88 25.53 22.67C26.69 23.82 27.72 25.24 28.4 26.72C31.76 33.95 33.15 41.45 30.88 49.33C30.62 50.2 30.04 51.42 30.47 52.04C31.23 52.99 32.42 51.36 32.68 50.7C33.35 48.95 33.77 47.12 34.31 45.32C34.65 44.2 34.86 42.97 35.47 41.99C35.94 41.23 36.97 40.3 37.67 40.37C38.4 40.43 39.42 41.48 39.66 42.29C41.45 48.34 40.61 53.88 35.03 58.58C32.16 61 28.63 61.79 25.01 62.26C20.94 62.79 16.91 62.95 12.82 62.02C10.87 61.57 8.84 61.27 7.66 60.84C6.49 60.41 5.48 59.53 5.01 58.8C-1.02 49.49 -2 39.69 2.23 29.41C3.11 27.28 4.81 26.84 6.3 28.6C7.39 29.9 8.02 31.64 8.71 33.27C9.18 34.41 9.44 35.64 9.76 36.83C10.17 38.32 10.77 38.55 11.17 38.29C11.67 38.14 11.97 36.34 11.92 34.54C11.82 31.58 11.88 28.6 11.56 25.66C10.66 17.05 12.76 8.98 15.82 1.07C16.58 -0.91 17.44 -1.15 19.07 0.23C25.73 5.88 30.54 12.75 32.72 21.31C33.06 22.61 33.16 24.08 34.82 25.1C34.98 23.84 35.11 22.8 35.26 21.77C35.64 19.23 35.89 16.65 36.45 14.16C36.81 12.66 37.85 12.35 38.95 13.43C40.38 14.85 41.79 16.42 42.72 18.2C46.2 24.83 47.4 32.04 47.37 39.46C47.34 45.29 46.26 50.96 43.58 56.17C42.67 57.94 41.14 59.41 39.84 60.96C39.26 61.67 37.93 61.44 38.54 59.87C38.59 59.73 38.66 59.57 38.76 59.43C43.79 52.68 44.3 44.77 44.36 36.8C44.42 30.45 43.5 24.22 40.53 18.48C39.91 17.3 39.11 16.25 38.17 14.81ZM37.44 42.59C36.64 45.24 36.02 47.43 35.3 49.61C34.73 51.33 33.87 52.89 32.16 53.75C30.18 54.75 28.26 53.64 28.15 51.42C28.11 50.51 28.15 49.57 28.33 48.69C29.71 41.63 29.06 34.77 26.3 28.12C25.82 26.99 25.13 25.94 24.44 24.7C24.2 25.1 24.02 26.58 24 27.22C23.82 32.04 23.28 36.8 20.75 41.06C19.23 43.59 17.52 46.01 15.87 48.48C14.04 51.23 12.42 54.07 11.82 57.37C11.42 59.64 11.59 59.74 13.76 60.3C18.35 61.46 22.85 60.72 27.33 59.83C32.43 58.81 35.61 55.45 37.51 50.82C38.55 48.29 38.26 45.66 37.44 42.59Z" fill="#CD4631" fill-opacity="1.000000" fill-rule="nonzero"/>
</svg>
