<svg width="66.000000" height="65.000000" viewBox="0 0 66 65" fill="none" xmlns="http://www.w3.org/2000/svg" xmlns:xlink="http://www.w3.org/1999/xlink">
	<desc>
			Created with Pixso.
	</desc>
	<defs/>
	<path id="Vector" d="M22.61 22.19C21.26 21.22 20.27 20.5 19.28 19.79C15.3 16.94 11.29 14.09 7.33 11.2C6.39 10.5 5.49 9.65 4.83 8.7C4.45 8.13 4.33 7.12 4.59 6.52C4.73 6.17 5.95 5.98 6.54 6.18C7.96 6.66 9.34 7.31 10.64 8.05C14.69 10.4 18.7 12.82 22.88 15.31C23.26 12.82 23.58 10.34 24.05 7.89C24.4 6 24.88 4.1 25.41 2.24C25.75 1.04 26.47 0 27.92 0.2C29.42 0.4 29.91 1.59 29.88 2.93C29.83 6.93 29.69 10.91 29.61 14.91C29.58 15.85 29.61 16.8 29.61 17.75C29.76 17.88 31.03 16.75 31.63 16.16C36.72 11.18 41.81 6.23 46.96 1.3C47.68 0.61 48.58 0.02 49.5 -0.36C49.99 -0.56 50.91 -0.41 51.24 -0.06C51.56 0.29 51.63 1.21 51.4 1.69C50.97 2.6 50.32 3.42 49.63 4.17C45.09 9.15 40.53 14.11 35.98 19.08C35.47 19.62 34.97 20.19 34.23 21.01C37.64 20.77 40.71 20.5 43.79 20.34C49.98 20.02 56.18 19.77 62.37 19.5C62.75 19.48 63.15 19.48 63.48 19.55C65.6 20 65.41 22.12 63.82 22.39C61.87 22.73 59.9 23.15 57.93 23.36C50.84 24.06 43.76 24.68 36.68 25.35C36.53 25.36 36.4 25.41 35.95 25.54C37.9 27.07 39.7 28.47 41.5 29.87C44.9 32.52 48.34 35.14 51.68 37.85C52.58 38.58 53.36 39.54 53.93 40.54C54.54 41.6 53.9 42.5 52.74 42.22C51.32 41.85 49.86 41.27 48.65 40.45C42.77 36.44 36.98 32.31 31.15 28.22C30.5 27.76 29.85 27.3 28.91 26.61C28.7 29.68 28.54 32.44 28.32 35.2C27.67 43.42 27.02 51.64 26.35 59.86C26.27 60.77 26.09 61.69 25.82 62.56C25.45 63.75 24.64 64.54 23.33 64.44C22.1 64.35 21.38 63.52 21.16 62.36C20.96 61.25 20.85 60.11 20.86 58.98C20.94 51.64 21.07 44.32 21.17 36.98C21.19 36.44 21.17 35.91 21.17 34.97C20.55 35.57 20.12 35.96 19.7 36.38C15.01 41.07 10.33 45.77 5.63 50.45C5.1 50.98 4.5 51.51 3.83 51.81C3.37 52.01 2.55 52 2.2 51.71C1.85 51.43 1.77 50.63 1.77 50.15C1.78 48.66 2.58 48 3.29 47.15C7.43 42.12 11.64 37.14 15.88 32.18C17.41 30.4 19.08 28.73 21.04 26.65C17.37 27.07 14.19 27.47 11 27.77C7.94 28.05 4.88 28.23 1.81 28.45C1.48 28.47 1.15 28.42 0.85 28.38C-0.71 28.19 0.17 26.54 0.62 26.43C3.69 25.67 6.79 24.94 9.91 24.37C13.6 23.73 21.77 22.48 22.61 22.19Z" fill="#000000" fill-opacity="1.000000" fill-rule="nonzero"/>
</svg>
