<svg width="275.000000" height="275.000000" viewBox="0 0 275 275" fill="none" xmlns="http://www.w3.org/2000/svg" xmlns:xlink="http://www.w3.org/1999/xlink">
	<desc>
			Created with Pixso.
	</desc>
	<defs>
		<clipPath id="clip301_430">
			<rect width="275.000000" height="275.000000" fill="white" fill-opacity="0"/>
		</clipPath>
	</defs>
	<g clip-path="url(#clip301_430)">
		<path d="M171.39 145.86C170.89 142.25 170.67 138.89 169.93 135.38C168.89 130.41 165.33 125.94 162.87 121.55C158.05 112.97 152.99 103.27 143.86 98.73C135.21 94.44 128 96.13 119.38 99.18C114.08 101.06 110.49 111.47 108.96 116.25C106.45 124.08 104.96 130.61 106.36 138.91C107.42 145.25 109.61 154.8 113.97 159.82C116.02 162.17 117.18 164.1 119.8 165.89C121.55 167.09 123.56 168.25 125.11 169.71C127.99 172.42 132.39 172.87 135.36 175.82C137.97 178.41 141.75 179.36 142.65 183.38C143.22 185.93 144.54 191.05 147.96 191.23C156.43 191.7 166.99 188.38 173.71 183.38C176.65 181.18 176.99 176.34 174.62 173.46C171.8 170.04 171.72 162.97 171.39 158.78C171.11 155.17 169.2 151.24 170.94 147.6C173.71 141.8 174.37 135.07 173.45 128.66C172.12 119.43 173.4 111.37 167 103.68C164.55 100.73 161.56 97.95 158.83 95.24C155.42 91.85 152.1 88.35 146.92 88.26C139.08 88.13 129.51 88.16 123.48 93.95C120.89 96.43 117.23 99.38 116.02 102.84C113.84 109.09 114.73 115.11 115.44 121.58C116.79 133.93 116.7 149.08 126.28 158.59C128.95 161.24 130.4 157.13 130.83 155.16C131.55 151.93 130.29 148.4 129.92 145.21C129.41 140.8 128.24 136.7 126.86 132.48C126.11 130.17 122.67 114.72 117.81 118.25C112.06 122.44 113.38 138.09 114.95 143.46C116.61 149.14 121.02 159.98 128.98 157.94C136.43 156.03 138.77 147.21 134.42 141.49C132.36 138.8 124.95 132.2 124.06 139.33C123.17 146.57 128.98 155.38 134.15 159.79C137.46 162.6 144.38 164.95 146.07 158.91C147.06 155.36 140.55 149.96 137.28 150.64C129.59 152.24 138.46 167.22 140.27 170.13C142.42 173.57 155.07 181.03 152.51 172.04C151.82 169.6 145.73 162.67 142.72 164.54C137.36 167.86 148.81 179.71 151.67 180.96C155.94 182.82 155.69 178.33 153.82 175.98C152.18 173.93 148.62 171.29 150.04 176.14C151.02 179.47 154.16 187.35 158.83 186.45C163.77 185.5 161.03 173.72 160 171.07C159.14 168.84 157.35 164.29 154.99 163.12C152.89 162.08 154.56 167.2 154.76 167.7C156.03 170.91 159.3 178.76 163.65 178.76C168.94 178.76 164.21 166.56 163.52 164.89C162.77 163.08 162.01 159.92 160 159.01C158.34 158.26 159.81 164.28 160 164.89C160.5 166.46 163.92 180.66 167.88 178.89C172.7 176.73 169.59 166.98 168.73 163.47C167.84 159.88 166.65 156.39 165.67 152.84C165.11 150.84 164.91 151.44 165.4 153.16C165.66 154.04 166.69 155.95 167.88 155.36C169.99 154.31 169.73 149.76 169.93 147.89C170.71 140.63 170.03 132.9 169.51 125.62C169.15 120.76 168.71 117 166.15 112.99C162.35 107.01 161.66 101.25 155.12 97.12C150.25 94.04 144.54 90.05 138.87 93.24C131.55 97.37 126.07 106.48 122.89 113.99C121.64 116.94 120.36 126.47 126.11 121.84C130.01 118.71 132.49 114.71 134.51 110.21C136.6 105.57 139.34 100.58 138.81 95.34C137.77 85.03 126.88 101.93 125.82 104.23C123.81 108.6 116.33 126.22 123.93 128.92C126.7 129.9 129.69 126.83 131.36 124.98C135.51 120.35 138.88 114.28 139.62 108.04C140.05 104.47 139.42 99.42 135.78 97.5C131.03 95 125.74 104.18 124.13 107.2C120.82 113.39 118.71 120.1 118.17 127.11C117.86 131.14 117.33 137.47 121.59 139.84C124.97 141.73 129.33 136.76 131.16 134.61C135.77 129.17 138.68 123 141.12 116.38C142.94 111.44 143.81 105.58 142.39 100.41C141.16 95.93 136.42 102.52 135.62 103.77C130.62 111.6 128.43 121.42 126.99 130.47C126.23 135.28 124.73 143.04 128.07 147.25C135.64 156.79 145.96 130.87 146.98 127.24C148.72 121.06 149.64 114.19 148.8 107.78C148 101.62 144.1 109.94 143.33 111.95C140.8 118.62 139.96 126.2 139.43 133.25C139.06 138.23 138.1 145.26 140.01 150.12C141.78 154.6 145.48 152.23 147.37 149.41C151.47 143.31 152.56 135.87 153.23 128.73C153.8 122.68 153.77 116.26 152.9 110.24C151.9 103.27 149.37 117.65 149.19 118.77C147.75 127.79 146.82 137.04 146.78 146.18C146.77 150.98 145.13 164.2 150.56 167.25C153.61 168.96 156.3 164.74 157.56 162.57C161.63 155.52 161.64 145.9 161.08 138.07C160.67 132.51 159.98 126.99 159.12 121.49C158.74 119.07 158.53 116.23 157.33 114.02C155.68 110.97 155.07 125.15 155.09 125.95C155.13 128.64 157.52 163.52 161.89 161.43C164.2 160.33 164.44 153.88 164.62 151.9C165.5 142.56 163.99 132.77 162.31 123.59C162.19 122.91 160.41 115.93 160.39 115.99C158.93 121 159.67 127.35 159.67 132.48C159.67 138.38 159.37 144.41 160.85 150.19C161.44 152.53 162.74 155.27 163.91 151.61C167.55 140.2 164.25 126.1 161.14 114.8C160.32 111.81 160.19 113.97 160.39 115.67C160.91 120.14 161.55 125.11 163.19 129.31C163.47 130.01 165.47 134.44 166.93 132.67C168.35 130.96 166.83 126.04 166.35 124.27C164.64 117.99 161.39 112.17 157.95 106.68C156.09 103.72 153.95 100.17 150.33 99.12C141.11 96.45 142.1 124 142.23 127.69C142.44 133.78 143.19 139.79 144.99 145.63C145.27 146.52 147.03 152.1 148.51 149.54C150.67 145.78 147.04 138.54 145.35 135.25C143.82 132.26 138.41 121.67 134.22 121.81C129.76 121.96 129.8 130.53 129.92 133.25C130.27 140.98 132.02 148.6 135.52 155.55C137.22 158.92 140.19 162.63 144.08 163.5C145.69 163.86 149.26 163.41 148.71 160.98C148.15 158.56 144.9 157.22 143.07 156C139.43 153.59 135.99 151 132.07 149.02C125.39 145.66 131.81 156.91 133.08 159.33C135.13 163.26 137.92 168.22 142.33 169.93C144.19 170.66 144.7 169.36 143.17 168.22C140.2 166.01 137.25 163.76 134.22 161.63C133.01 160.78 128.68 156.21 126.99 156.59C126.9 156.61 134.56 166.57 135.95 167.64C140.67 171.29 126.34 160.52 121.39 157.17C117.54 154.55 119.69 155.89 121.92 158.07C123.99 160.1 125.89 162.27 127.9 164.34C129.57 166.06 131.84 165.14 134.22 165.99C137.6 167.2 141.12 171.22 145.03 168.42C148.8 165.71 148.46 164.84 150.3 169.81C152.51 175.77 153.61 182.08 154.99 188.26C155.46 190.37 156.15 187.83 156.49 186.97C157.37 184.68 158.46 182.07 158.5 179.6C158.59 175.14 154.94 173.83 152.09 177.56C151.25 178.67 147.72 186.22 152.06 184.25C154.23 183.27 155.07 181.85 155.57 179.53C157.11 172.48 157.09 164.77 156.49 157.62C156.32 155.73 156.1 146.54 153.2 145.82C149.82 144.98 148.17 158.32 147.96 160.27C147.39 165.59 146.35 170.98 147.37 176.3C148.29 181.08 150.54 179.45 151.93 175.72C154.13 169.81 154.31 162.82 154.04 156.62C153.86 152.31 153.34 148.14 152.35 143.95C152.03 142.59 151.72 139.32 150.27 138.42C147.8 136.89 147.43 147.22 147.37 148.15C147.19 151.09 146.29 159.87 146.82 156.97C148.89 145.68 145.13 132.02 139.04 122.46C131.53 110.67 123.41 130.65 123.41 137.32C123.41 138.48 123.54 142.56 125.69 141.53C129.49 139.69 128.98 132.66 128.95 129.37C128.91 126.04 128.29 116.28 124.52 114.38C119.97 112.07 119.87 128.29 119.83 129.57" stroke="#FFD700" stroke-opacity="1.000000" stroke-width="7.023809" stroke-linejoin="round" stroke-linecap="round"/>
		<path d="M150.89 200.54C153.98 199.94 157.21 199.15 160.29 198.76C163.04 198.42 166.82 195.2 169.28 193.88C171.54 192.68 174.36 192.41 176.54 190.98C177.39 190.41 180.32 186.43 180.18 188.91C180.1 190.43 177.89 193.05 177.22 194.5C176.02 197.09 173.28 199.62 171.07 201.42C168.67 203.37 166.3 204.98 163.52 206.36C160.87 207.68 157.5 208.43 155.25 210.43C153.65 211.85 156.34 211.91 157.66 212.15C160.15 212.6 162.69 212.12 164.72 210.72C167.13 209.06 170.49 207.41 173.28 206.49C175.77 205.67 177.37 204.1 179.6 203C180.47 202.57 183.62 201.88 181.65 203.45C180.7 204.2 180.7 206.23 180.18 207.27C179.52 208.57 178.01 209.82 176.9 210.76C174.46 212.8 171.82 215.16 169.05 216.7C167.87 217.36 172.98 217.88 173.15 218" stroke="#4D4D4D" stroke-opacity="1.000000" stroke-width="7.023809" stroke-linejoin="round" stroke-linecap="round"/>
		<path d="M147.37 186C147.37 180.03 147.96 174.23 147.96 168.29C147.96 160.93 145.67 153.68 143.72 146.63C141.71 139.32 139.17 132.03 134.48 125.95C131.69 122.34 128.78 116.19 123.48 116.19C120.34 116.19 119.83 119.01 119.83 121.42C119.83 125.98 122.38 129.94 126.15 132.48C130.3 135.27 135.61 135.92 140.21 137.71C144.03 139.2 147.93 140.98 150.75 137.13C156.33 129.55 157.68 120.52 157.33 111.4C157.3 110.5 155.91 107.44 154.86 108.49C152.81 110.53 151.53 114.3 151.47 117.16C151.19 129.92 152.91 143.79 158.05 155.55C159.2 158.19 160.36 160.82 161.76 163.34C162.84 165.29 163.19 167.6 164.49 169.39C165.23 170.4 170.76 176.82 168.46 173.78" stroke="#4D4D4D" stroke-opacity="1.000000" stroke-width="7.023809" stroke-linejoin="round" stroke-linecap="round"/>
		<path d="M98.74 194.72C102.08 191.41 104.87 187.79 107.66 183.99C109.45 181.55 108.81 182.26 108.11 180.18" stroke="#FFD700" stroke-opacity="1.000000" stroke-width="7.023809" stroke-linejoin="round" stroke-linecap="round"/>
		<path d="M71.78 147.02C74.95 145.93 79.14 144.4 81.88 142.49C82.28 142.21 81.27 144.92 80.57 143.53" stroke="#FFD700" stroke-opacity="1.000000" stroke-width="7.023809" stroke-linejoin="round" stroke-linecap="round"/>
		<path d="M63 92.33C67.03 95.03 70.98 97.57 76.02 97.57C77.13 97.57 80.8 97.44 79.99 95.82" stroke="#FFD700" stroke-opacity="1.000000" stroke-width="7.023809" stroke-linejoin="round" stroke-linecap="round"/>
		<path d="M107.53 60.92C108.38 64.86 109.88 67.82 112.18 71.1C112.58 71.66 115.4 74.68 113.97 72.55" stroke="#FFD700" stroke-opacity="1.000000" stroke-width="7.023809" stroke-linejoin="round" stroke-linecap="round"/>
		<path d="M160.26 67.32C162.83 65.6 165.72 63.75 167.88 61.5C168.5 60.85 170.81 57.77 170.81 58.01" stroke="#FFD700" stroke-opacity="1.000000" stroke-width="7.023809" stroke-linejoin="round" stroke-linecap="round"/>
		<path d="M195.42 95.82C201.29 93.92 213 90.01 213 90.01" stroke="#FFD700" stroke-opacity="1.000000" stroke-width="7.023809" stroke-linejoin="round" stroke-linecap="round"/>
		<path d="M196 143.53C199.51 146.9 202.85 146.43 207.14 148.05C209.03 148.77 209.75 148.12 207.14 147.6" stroke="#FFD700" stroke-opacity="1.000000" stroke-width="7.023809" stroke-linejoin="round" stroke-linecap="round"/>
	</g>
</svg>
