<svg width="275.000000" height="275.000000" viewBox="0 0 275 275" fill="none" xmlns="http://www.w3.org/2000/svg" xmlns:xlink="http://www.w3.org/1999/xlink">
	<desc>
			Created with Pixso.
	</desc>
	<defs>
		<clipPath id="clip301_401">
			<rect width="275.000000" height="275.000000" fill="white" fill-opacity="0"/>
		</clipPath>
	</defs>
	<g clip-path="url(#clip301_401)">
		<path d="M56.85 209.03C50.4 200.29 43.98 212.04 46.92 218.84C48.1 221.55 48.21 224.81 51.33 225.73C52.29 226.01 53.15 227.17 54.22 227.17C56.02 227.17 56.69 226.74 58.28 226.19" stroke="#4D4D4D" stroke-opacity="1.000000" stroke-width="3.000000" stroke-linejoin="round" stroke-linecap="round"/>
		<path d="M59.23 227.66C60.55 234.56 61.05 242.11 64.38 248.26C66.9 252.91 72.06 257.41 77.36 258.09C80.8 258.54 83.63 259.5 87.2 258.67C89.94 258.02 92.45 256.88 95.11 256.1C97.31 255.46 99.22 253.88 100.79 252.18C102.79 250.01 103.61 247.17 105.19 244.94C106.26 243.42 106.52 240.03 106.52 238.18C106.52 235.7 107 233.47 107 230.99C107 225.63 105.09 220.46 105.09 215.16C105.09 213.61 104.22 212.13 104.13 210.5C104.01 208.37 103.53 205.55 103.15 203.42C102.8 201.45 102.22 199.4 102.22 197.37C102.22 194.01 100.95 197.37 99.35 196.28" stroke="#4D4D4D" stroke-opacity="1.000000" stroke-width="3.000000" stroke-linejoin="round" stroke-linecap="round"/>
		<path d="M52.55 202.16C51.38 197.81 52.21 193.24 50.4 189.14C49.3 186.65 50.57 182.87 51.01 180.42C51.32 178.66 51.12 176.74 51.12 174.95C51.12 173.39 52.3 172.52 52.52 171.02C52.74 169.58 51.93 168.12 50.64 167.46C49.39 166.82 49.96 167.23 50.85 166.37C51.35 165.88 53.23 165.03 53 164.19C52.84 163.61 52.1 163.87 54.03 163.42C55.64 163.06 57.67 161.46 59.23 161.46C60.9 161.46 61.92 161.11 63.64 160.48C65.51 159.8 66.38 161.61 67.62 161.38C69.09 161.11 70.18 159.06 71.86 159.06C72.05 159.06 72.8 159.96 73.67 159.99C74.99 160.04 76.53 160.93 77.86 160.37C78.75 160 78 161.68 79.06 161.92C81.41 162.46 83.7 160.06 85.74 159.28C87.71 158.54 86.87 159.35 86.35 160.48C86.02 161.2 90.3 161.2 91.13 161.35C93.34 161.77 92.28 161.63 91.02 162.69C89.34 164.1 91.79 164.4 92.93 164.4C95.23 164.4 94.64 164.24 94.58 165.98C94.51 167.84 94.9 167.68 96.01 168.82C96.76 169.58 96.82 170.8 97.68 171.49C98.5 172.14 100.31 170.78 99.78 172.55C99.26 174.29 98.03 175.76 97.55 177.54C97.23 178.69 99.74 178.53 100.31 179.12C101.83 180.68 100.19 181.25 99.86 182.79C99.6 183.99 100.51 184.36 100.76 185.27C101.06 186.33 99.36 186.82 99.94 187.94C100.57 189.16 100.79 188.92 99.83 190.39" stroke="#4D4D4D" stroke-opacity="1.000000" stroke-width="3.000000" stroke-linejoin="round" stroke-linecap="round"/>
		<path d="M47.77 167.35C46.71 167.99 43 169.91 45.86 171.38C47.06 171.99 45.59 171.17 45.89 173.45C46.24 176.14 47.05 175.83 45.15 178.38C43.61 180.44 45.07 181.33 44.06 183.53C43.48 184.78 43.05 186.45 43 187.83C42.92 189.99 47.68 190.89 46.53 192.6C46.03 193.34 44.57 194.38 44.64 195.41C44.75 197.05 47.4 198.69 48.44 199.71C48.94 200.21 50.42 201.54 49.58 202.16C48.62 202.87 49.58 202.8 50.05 203.63C50.45 204.32 51.38 205.6 51.38 205.6C51.38 205.6 50.93 202.08 50.35 200.42C49.83 198.94 48.97 197.9 47.98 196.77C47.6 196.32 48.72 195.82 48.99 195.49C50.92 193.15 51.54 186.91 48.25 185.22C47.66 184.91 48.44 186.71 48.97 187.13C49.95 187.91 50.1 183.7 50.05 183.31C49.79 180.94 48.97 179.36 47.35 177.7C46.24 176.56 46.61 176.79 47.8 176.64C49.31 176.44 51.1 174.83 49.44 173.5C48.28 172.57 49.95 176.94 50.64 177.64" stroke="#4D4D4D" stroke-opacity="1.000000" stroke-width="3.000000" stroke-linejoin="round" stroke-linecap="round"/>
		<path d="M55.89 205.11C56.58 206.01 57.69 206.74 58.28 207.67C58.82 208.51 58.8 209.6 59.23 210.5C60.34 212.78 61.15 208.97 61.15 207.94C61.15 207.05 60.25 203.4 59.34 205.98C59.14 206.55 59.7 204.93 59.71 204.51C59.75 202.96 59.71 201.41 59.23 199.93C58.48 197.57 56.64 194.82 54.94 193.06C54.51 192.63 55.78 194.07 56.37 194.21C57.69 194.52 58.26 193.59 58.28 192.36C58.3 191.5 56.41 184.45 54.56 186.58C54.48 186.68 57.8 188.12 57.8 185.25C57.8 184.05 55.63 182.5 57.8 183.99C59.92 185.44 62.48 184.04 63.72 182.09C65.3 179.59 62.23 179.19 64.75 181.79C67.04 184.13 70.52 182.63 72.32 180.37C72.78 179.79 74.57 182.1 76.43 181.76C77.43 181.58 80.95 178.91 81.68 179.85C83.92 182.72 88.71 182.18 91.71 182.06C92.86 182.01 97.9 178.48 96.01 177.26C94.83 176.51 94.56 180.03 96.49 178.52C99.13 176.44 97.57 173.69 95.53 172.14C93.47 170.57 95.81 171.73 95.43 169.69C94.94 167.07 91.85 163.39 88.95 165.22C85.13 167.63 90.54 170.11 90.54 167.13C90.54 163.17 83.29 161.55 80.57 163.04C77.84 164.53 81.78 164.72 80.38 164.13C78.6 163.38 76.51 163.08 74.6 162.96C73.83 162.91 72.33 163.24 71.68 162.69C70.7 161.85 68.33 161.12 67.09 160.73C62.82 159.37 63.33 163.23 64.94 166.26C66.48 169.16 59.99 167.34 58.78 167.16C55.54 166.67 53.62 171.22 57.03 171.22C58.3 171.22 57.32 170.68 56.77 170.53C54.98 170.07 53.39 170.8 52.1 172.09C49.14 175.02 50.34 181.45 55.31 179.82C57.01 179.27 54.97 178.24 54.14 178.24C51.59 178.24 48.46 179.85 47.61 182.44C46.04 187.22 57.88 181.12 59.23 179.99C60.13 179.23 61.1 178.45 59.98 177.54C59.1 176.82 56.41 175.14 57.54 175.14C58.17 175.14 60.78 177.58 61.62 177.92C63 178.48 65.41 179.17 66.66 177.92C69.58 175.01 63.88 173.65 64.12 174.32C65.92 179.32 74.78 176.35 77.54 174.32C78.61 173.53 78.72 172.23 77.17 173.07C75.49 173.98 74.11 176.16 74.84 178.14C76.55 182.81 87.01 180.46 87.78 176.01C88.02 174.64 85.55 174.02 84.65 174.54C82.36 175.88 84.36 178.43 86.14 178.76C90.81 179.62 98.91 174.07 91.69 170.89C90.12 170.2 87.2 169.82 86.09 171.54C84.72 173.65 88.82 173.55 89.77 173.37C98.09 171.77 88.32 167.06 85.79 165.63C83.77 164.48 78.64 161.1 80.43 166.26C80.66 166.91 79.27 164.92 79.03 164.68C77.64 163.25 75.68 162.19 73.78 161.79C71.53 161.31 68.71 161.32 67.01 163.15C65.89 164.36 67.24 164.77 68.31 164.87C68.67 164.9 70.85 164.98 69.87 164.13C68.44 162.88 66.28 162.89 64.51 162.69C63.22 162.54 60.3 162.11 59.84 164C59.37 165.95 61.17 169.11 62.68 170.18C64.31 171.33 62.92 170.29 61.99 169.91C60.53 169.3 58.18 168.52 56.58 168.93C54.68 169.41 58.91 171.1 59.13 171.16C62.34 172 66.13 171.43 69.21 170.29C69.96 170.01 73.08 168.51 72.02 167.24C71.61 166.74 70.28 165.91 69.85 166.86C68.76 169.24 76.88 168.12 77.76 167.56C78.65 167 74.23 165.62 74.84 168.82C75.5 172.27 81.05 172.34 83.01 170.18C84.98 168 81.19 167.72 82.37 169.69C83.72 171.93 84.77 169.38 81.36 168.57C76.28 167.37 73.01 169.55 68.15 170.23C64.83 170.71 65.11 172.17 63.06 174.43C61.04 176.65 59.09 175.68 56.87 176.96C54.71 178.21 56.13 183.81 55.86 185.95C55.61 188.01 51.64 186.43 50.96 189.44C50.55 191.23 51.76 193.13 53.05 194.24C53.65 194.75 55.7 195.09 56.02 195.76C56.46 196.66 54.04 195.62 53.08 195.84C51.81 196.13 52.06 197.99 52.34 198.92C53.14 201.64 54.95 203.7 55.41 206.58" stroke="#4D4D4D" stroke-opacity="1.000000" stroke-width="3.000000" stroke-linejoin="round" stroke-linecap="round"/>
		<path d="M56.37 219.82C55.39 218.44 54.87 217.66 54.94 216C54.98 214.92 55.58 215.52 54.72 214.64C54.07 213.97 52.58 213.88 52.07 214.91" stroke="#4D4D4D" stroke-opacity="1.000000" stroke-width="3.000000" stroke-linejoin="round" stroke-linecap="round"/>
		<path d="M69.74 203.14C71.27 201.14 73.03 200.51 75.37 199.82C76.63 199.45 79.01 199.61 78.82 199.22" stroke="#4D4D4D" stroke-opacity="1.000000" stroke-width="3.000000" stroke-linejoin="round" stroke-linecap="round"/>
		<path d="M93.14 198.24C95.07 197.85 97.27 197.17 98.88 198.73C99.45 199.28 102.43 200.69 100.79 200.69" stroke="#4D4D4D" stroke-opacity="1.000000" stroke-width="3.000000" stroke-linejoin="round" stroke-linecap="round"/>
		<path d="M77.86 209.52C77.86 209.52 77.86 209.52 77.86 209.52L77.86 209.52Z" stroke="#4D4D4D" stroke-opacity="1.000000" stroke-width="3.000000" stroke-linejoin="round" stroke-linecap="round"/>
		<path d="M96.49 209.03C96.49 209.03 96.49 209.03 96.49 209.03L96.49 209.03Z" stroke="#4D4D4D" stroke-opacity="1.000000" stroke-width="3.000000" stroke-linejoin="round" stroke-linecap="round"/>
		<path d="M88.37 205.6C88.37 211.65 92.59 217.44 94.13 222.98C94.78 225.33 93.93 225.7 91.47 225.7C89.08 225.7 87.85 225.51 86.46 227.66" stroke="#4D4D4D" stroke-opacity="1.000000" stroke-width="3.000000" stroke-linejoin="round" stroke-linecap="round"/>
		<path d="M164.04 148.77C160.9 146.5 158.95 146.81 156.09 149.46C153.42 151.94 152.56 156.53 154.96 159.48C158.69 164.06 167.12 162.67 169.88 157.87C171.23 155.54 170.82 157.36 171.7 158.07C173.9 159.85 175.03 159.98 177.24 157.89C179.9 155.37 182.06 145.21 175.51 146.55C174.78 146.7 172.44 148.32 173.54 148.1C175 147.8 174.97 146 174.6 144.87C173.64 141.86 169.42 140.39 166.76 141.51C164.78 142.34 164.27 144.78 162.68 145.7C161.13 146.59 155.02 151.81 159.75 151.25" stroke="#4D4D4D" stroke-opacity="1.000000" stroke-width="2.500000" stroke-linejoin="round" stroke-linecap="round"/>
		<path d="M125.94 162.99C123.52 162.51 120.66 161.81 120.05 165.1C119.59 167.54 122.09 170.62 124.69 170.21C125.59 170.06 128.57 168.67 129.16 169.26C130.64 170.74 131.53 169.04 132.44 167.6C133.5 165.91 131.89 160.5 129.69 160.01C128.29 159.7 122.76 163.64 123.44 163.99" stroke="#4D4D4D" stroke-opacity="1.000000" stroke-width="2.500000" stroke-linejoin="round" stroke-linecap="round"/>
		<path d="M166.04 70.16C168.78 66.6 173.72 62.88 178.55 63.15C180.7 63.27 181.75 68.11 182.44 69.66C184.88 75.16 172.58 75.88 175.05 81.44C175.51 82.49 176.92 82.89 177.83 83.47C179.76 84.7 180.05 84.12 180.05 82.19C180.05 80.69 176.81 76.81 178.55 75.78C183.26 73.01 182.25 65.65 176.3 65.65C171.72 65.65 165.04 66.49 165.04 72.42C165.04 75.37 167.54 74.5 168.76 72.92C170.25 71.01 171.3 68.66 174.05 68.66C175.97 68.66 179.75 67.91 180.05 70.66C180.1 71.13 181.11 73.34 180.94 73.56C180.24 74.45 179.55 75.8 179.05 76.93C178.21 78.81 175.55 78.56 175.55 80.93C175.55 82.52 175.63 82.8 176.55 83.94C176.85 84.32 178.62 85.33 178.05 84.19" stroke="#CD4631" stroke-opacity="1.000000" stroke-width="3.000000" stroke-linejoin="round" stroke-linecap="round"/>
		<path d="M181.55 91.21C181.66 95.38 183.69 92.82 182.16 91.6C181.15 90.78 180.87 93.01 182.05 93.6C183.38 94.27 183.08 90.91 182.66 91.32C181.59 92.39 183.87 95.3 181.55 94.71" stroke="#CD4631" stroke-opacity="1.000000" stroke-width="3.000000" stroke-linejoin="round" stroke-linecap="round"/>
		<path d="M155.19 26.23C148.67 17.9 137.31 20.48 130.3 26.98C123.48 33.31 119.28 49.18 125.58 57.06C127.33 59.25 128.87 61.69 130.93 63.6C131.67 64.27 129.04 64.3 128.05 64.45C124.98 64.9 123.47 68.22 124.31 71.07C124.75 72.57 125.98 73.6 127.46 73.93C128.48 74.16 128.71 74.52 127.53 74.64C124.78 74.92 122.81 75.07 120.92 77.38C118.14 80.79 119.4 83.74 122.7 85.96C126.04 88.21 125.42 89.2 122.31 91.07C119.85 92.56 118.92 95.57 118.07 98.28C116.6 102.97 114.49 110.04 118.65 113.8C123.84 118.51 131.63 118.69 138.09 117.49C140.24 117.09 142.8 116.91 144.48 115.34C144.93 114.91 146.16 113.4 144.87 113.12C142.57 112.63 141.74 116.75 141.62 118.19C140.77 128.32 155.9 131.78 163.2 130.52C167.95 129.7 172.1 127.41 175.82 124.44C178.75 122.11 182.88 119.52 184.82 116.19C185.76 114.59 185.41 116.46 185.96 117.92C187.28 121.42 191.07 120.75 193.94 119.89C197.8 118.73 201.27 116.24 203.6 112.93C203.94 112.44 205.67 109.23 205.96 109.67C209.51 115.02 211.63 107.49 214.67 105.67C215.18 105.37 216.13 108.83 216.42 109.39C218.64 113.66 220.95 117.48 225.94 118.74C236.64 121.42 247.85 116.88 255.25 109.17C258.37 105.92 260.09 101.43 256.14 97.84C255.19 96.97 258.2 97.97 258.76 97.93C261.85 97.71 266.33 97.32 268.58 94.9C271.15 92.14 272.53 89.7 271.52 85.85C270.81 83.15 269.25 81.55 266.69 80.54C265.57 80.1 263.31 80.01 264.95 78.97C266.6 77.93 267.37 75.29 267.52 73.44C267.76 70.51 265.75 68.52 263.15 67.53C261.97 67.08 258.37 67.54 258.97 67.48C260.98 67.28 262.08 59.42 261.93 57.91C261.27 51.24 254.58 46.03 247.8 46.47C246.68 46.54 245.52 47.21 246.38 46.05C247.35 44.72 247.4 42.33 247.8 40.78C250 32.1 246.44 24.76 239.66 19.21C234.08 14.64 225.49 12.13 218.78 15.28C218.35 15.49 215.53 18.76 216.38 18.67C217.68 18.54 217.27 15.42 217.09 14.73C216.26 11.51 212.48 8.85 209.71 7.43C205.64 5.34 199.75 6.06 195.47 7.24C191.7 8.28 188.86 10.74 186.92 14.04C185.89 15.79 186.76 17.25 185.48 16.08C183.41 14.18 182.65 12.94 179.42 13.2C175.6 13.51 172.12 14.51 169.1 16.9C167.54 18.12 166.16 20.77 166.36 22.81C166.36 22.84 165.93 20.88 165.63 20.11C164 16 158.55 16.14 155.65 19.04C154.43 20.26 153.73 22.12 153.6 23.83C153.52 24.72 153.02 27.57 152.78 25.09" stroke="#4D4D4D" stroke-opacity="1.000000" stroke-width="2.500000" stroke-linejoin="round" stroke-linecap="round"/>
		<path d="M194.47 41.1C193.74 36.9 198.38 36.43 201.7 35.59C204.34 34.92 206.85 34.36 209.37 35.81C211.01 36.75 213.32 39.17 213.46 41.1C213.97 48.28 207.69 52.62 200.78 52.62C197.89 52.62 198 57.83 197.98 59.64C197.94 62.56 197.25 65.39 197.59 68.33C197.68 69.13 198.16 73.59 199.48 72.08C201.66 69.59 201.98 64.27 201.98 61.14C201.98 58.16 201.15 55.57 204.23 54.38C206.96 53.33 210.27 52.12 212.1 49.62C214.72 46.02 215.23 41.01 212.46 37.37C210.12 34.29 203.56 34.15 199.98 34.08C195.28 34 193.13 36.7 190.75 40.6C189.32 42.93 190.04 46.86 193.47 46C197.14 45.08 199.69 42.95 202.26 40.38C203.63 39 207.45 39.94 208.98 40.71C210.81 41.62 209.72 44.78 209.21 46.11C207.15 51.42 200.29 51.24 198.59 56.02C197.3 59.63 197.48 63.35 197.48 67.13C197.48 68.29 196.72 72.06 198.98 71.05C203.28 69.14 201.27 60.99 201.48 57.13C201.6 54.93 204.52 54.61 205.98 53.88C207.76 52.99 210.21 50.39 211.1 48.62C212.3 46.21 212.52 42.55 210.74 40.38C208.52 37.66 204.75 39.32 202.48 37.59C200.51 36.09 196.36 41.21 194.97 42.6C194.43 43.15 193.82 43.63 193.22 44.11C192.95 44.32 192.17 45.89 191.97 45.89C191.35 45.89 192.7 44.86 193.19 44.5C194.87 43.26 196.44 41.85 197.67 40.15C199.04 38.26 201.25 39.09 203.48 39.09C204.76 39.09 207.66 38.54 208.73 39.37C210.36 40.64 210.95 41.78 208.48 42.6" stroke="#CD4631" stroke-opacity="1.000000" stroke-width="3.000000" stroke-linejoin="round" stroke-linecap="round"/>
		<path d="M199.98 80.19C192.68 81.83 203.22 84.82 201.87 80.57C201.41 79.13 199.35 79.65 200 81.19C200.29 81.86 202.93 83.01 200.48 82.19" stroke="#CD4631" stroke-opacity="1.000000" stroke-width="3.000000" stroke-linejoin="round" stroke-linecap="round"/>
		<path d="M230.13 96.04C233.56 96.04 238.02 95.24 241.36 96.22C243.31 96.79 244.34 98.03 245.74 99.34C247.4 100.9 249.38 102.97 249.13 105.43C248.83 108.43 244.97 109.9 242.57 110.7C239.13 111.85 234.57 111.64 231 111.1C228.18 110.68 223.2 109.79 222.09 106.59C221.19 103.99 223.13 102.6 225.35 101.98C228.78 101.01 232.37 100.25 235.88 99.72C237.59 99.46 241.46 98.32 243.16 99.48C243.87 99.96 244.59 102.08 244.75 102.9C245.01 104.21 244.31 104.94 243.21 105.55C240.78 106.89 237.83 107.5 235.17 106.51C231.64 105.18 236.14 102.13 238.1 102C240.41 101.84 241.3 102.76 242.12 104.93C242.7 106.46 242.68 107.42 240.75 107.58C238.45 107.77 236.06 107.57 233.87 106.83C230.47 105.68 226.05 103.67 223.72 100.8C222.63 99.46 222.65 97.67 222.65 96.04C222.65 93.36 222.67 93.57 225.73 93.55C231.02 93.5 236.3 93.23 241.6 93.23C243.26 93.23 244.79 93.07 246.27 93.93C247.3 94.52 247.33 94.78 247.28 95.94C247.08 100.13 242.44 101.2 239.17 102.29" stroke="#4D4D4D" stroke-opacity="1.000000" stroke-width="1.500000" stroke-linecap="round"/>
		<path d="M137.53 57.64C137.04 55.15 135.48 52.86 134.55 50.46C133.74 48.37 133.47 45.66 133.47 43.41C133.47 39.12 134.08 34.49 137.91 31.72C140.84 29.61 146.24 28.58 149.13 31.48C151.95 34.3 151.52 38.74 152.34 42.34C153.19 46.09 151.31 51.92 147.19 53.08C145.85 53.45 142.42 54.3 141.42 52.92C139.98 50.91 139.5 47.9 138.84 45.57C138.14 43.06 135.65 37.05 139.69 35.83C144.71 34.33 146.81 42.63 147.12 46.02C147.31 48 147.46 49.76 146.12 51.32C145.56 51.98 143.12 53.79 142.36 52.61C141.31 50.97 140.54 43.08 142.83 42.96C143.37 42.94 144.93 42.73 145.25 43.28C145.83 44.26 145.13 45.82 144.21 46.22C142.42 47.02 141.89 46.9 141.89 44.99C141.89 43.25 142.64 41.94 144.63 42.79C145.61 43.21 145.72 45.13 145.88 45.98C146.37 48.67 146.26 51.42 146.26 54.13C146.26 58.33 143.12 60.63 140.33 63.57" stroke="#4D4D4D" stroke-opacity="1.000000" stroke-width="1.500000" stroke-linecap="round"/>
		<path d="M139.4 109.78C135.71 109.78 132.47 110.09 129.42 107.84C127.34 106.31 126.61 104.84 126.61 102.22C126.61 100.36 126.82 98.86 128.17 97.43C129.43 96.11 130.57 96.07 132.33 95.66C132.98 95.51 137.58 94.25 138.08 95.42C138.82 97.14 137.84 100.06 136.9 101.53C135.86 103.15 134.95 104.74 133.16 105.66C132.76 105.86 129.78 107 129.73 106.04C129.63 104.24 129.89 102.89 130.98 101.42C131.63 100.54 134.1 100.99 135.03 101.04C138.4 101.21 136.9 109.61 133.23 105.79C132.44 104.97 132.32 103.34 132.88 102.39C134.95 98.95 138.61 97.46 142.2 96.36" stroke="#4D4D4D" stroke-opacity="1.000000" stroke-width="1.500000" stroke-linecap="round"/>
		<path d="M250.71 65.44C252.36 64.44 253.83 63.16 253.83 61.07C253.83 59.74 254.16 58.41 253.03 57.48C252.2 56.8 245.84 54.27 245.72 56.7C245.64 58.39 245.72 60.11 245.72 61.8C245.72 63.65 247.68 63.28 249.08 63.26C251.69 63.22 252 61.26 251 58.92C250.46 57.66 248.64 56.78 247.94 58.71C247.57 59.73 252.62 58.89 249.15 58.89" stroke="#4D4D4D" stroke-opacity="1.000000" stroke-width="1.500000" stroke-linecap="round"/>
		<path d="M260.35 89.27C261.04 89.27 262.97 89.03 263.2 90.07C263.41 91 263.07 91.54 262.41 92.06C260.95 93.19 257.1 92.64 257.96 90.14C258.57 88.37 260.37 87.18 262.24 87.11C262.69 87.1 263.25 86.96 263.48 87.38C263.71 87.8 263.59 88.61 263.39 89.01C262.82 90.15 261.76 91.12 260.57 91.28C258.9 91.49 254.98 92.26 254.98 89.8" stroke="#4D4D4D" stroke-opacity="1.000000" stroke-width="1.500000" stroke-linecap="round"/>
	</g>
</svg>
