<svg width="162.000000" height="150.000000" viewBox="0 0 162 150" fill="none" xmlns="http://www.w3.org/2000/svg" xmlns:xlink="http://www.w3.org/1999/xlink">
	<desc>
			Created with Pixso.
	</desc>
	<defs/>
	<path id="Vector" d="M61.02 136.89C62.55 131.29 63.73 126.52 65.17 121.84C67.59 113.88 70.33 106.13 75.96 99.68C81.67 93.14 88.8 90.66 96.96 93.05C101.97 94.52 106.57 97.35 111.25 99.74C113.08 100.68 114.67 102.16 117.17 103.95C116.23 99.47 115.44 95.97 114.79 92.43C113.17 83.8 111.19 75.23 110.16 66.54C108.69 54.63 114.7 47.5 126.72 46.44C131.43 46.03 136.3 46.77 141.1 47.03C142.54 47.12 143.96 47.41 145.67 47.65C141.25 40.58 136.94 33.92 132.94 27.14C123.6 11.32 134.12 1.69 146.78 0.04C150.17 -0.4 153.74 -0.02 157.19 0.3C159.48 0.6 161.37 2.07 161.02 4.6C160.72 6.9 158.66 7.55 156.48 7.61C154.33 7.7 152.15 7.64 150.06 7.96C147.61 8.35 145.13 8.76 142.81 9.61C136.27 12.03 134.32 16.09 137.09 22.52C139.04 27.05 141.66 31.33 144.19 35.57C146.55 39.52 149.11 43.38 151.67 47.24C152.97 49.24 154.21 51.3 152.97 53.66C151.56 56.37 148.88 56.16 146.4 55.99C143.25 55.78 140.16 55.1 137 55.07C133.03 54.99 129.02 54.99 125.13 55.52C119.86 56.25 117.79 58.55 117.82 63.88C117.85 68.98 118.18 74.2 119.03 79.23C120.92 90.02 123.16 100.68 125.42 111.38C125.95 113.91 125.93 116.06 123.72 117.56C121.62 119.01 119.62 118.12 117.76 116.74C114.46 114.27 111.22 111.61 107.81 109.32C104.8 107.31 101.68 105.31 98.38 103.89C89.57 100.09 83.67 101.98 78.17 109.79C74.01 115.65 71.12 122.13 69.06 128.97C67.56 133.89 66.38 138.89 65.08 143.85C64.41 146.47 63.7 149.18 60.43 149.56C57.34 149.89 55.69 147.65 54.18 145.38C53.56 144.41 53.09 143.34 52.59 142.31C51.62 140.22 50.5 138.16 49.73 135.98C43.93 119.8 31.26 114.38 15.44 114.18C12.52 114.15 9.58 115.03 6.66 115.59C5.22 115.86 3.8 116.56 2.36 116.65C1.33 116.74 -0.24 116.42 -0.65 115.71C-1.12 114.94 -0.77 113.41 -0.44 112.5C0.3 110.52 2.3 108.87 4.13 108.11C7.75 106.6 11.61 105.28 15.47 104.9C24.01 104.01 32.29 105.75 40.28 108.96C47.08 111.7 51.68 116.83 54.92 123.19C56.98 127.38 58.69 131.68 61.02 136.89Z" fill="#000000" fill-opacity="1.000000" fill-rule="nonzero"/>
</svg>
