<svg width="125.000000" height="121.000000" viewBox="0 0 125 121" fill="none" xmlns="http://www.w3.org/2000/svg" xmlns:xlink="http://www.w3.org/1999/xlink">
	<desc>
			Created with Pixso.
	</desc>
	<defs/>
	<path id="Vector" d="M58.54 58.29C59.04 56.29 59.33 54.66 59.87 53.08C65.29 37.08 74 22.83 83.91 9.29C85.08 7.7 86.54 6.2 88.16 5.2C89.04 4.66 90.79 4.74 91.79 5.29C92.54 5.7 93.08 7.33 92.91 8.24C92.62 9.99 92 11.79 91.12 13.37C85.37 23.83 79.58 34.24 73.7 44.62C71.5 48.49 69.16 52.33 66.87 56.16C66.12 57.45 65.29 58.7 64.41 59.87C63.45 61.2 62 61.99 60.54 61.12C59.58 60.54 58.54 60.12 58.54 58.29Z" fill="#CD4631" fill-opacity="1.000000" fill-rule="nonzero"/>
	<path id="Vector" d="M117.54 120.33C115.54 120 113.2 119.75 110.95 119.25C102.08 117.25 93.2 115.25 84.37 113.16C82.45 112.7 80.58 111.91 78.87 111C76.58 109.79 75.79 108.08 76.16 106.2C76.54 104.33 78.04 103.16 80.66 103.12C82.45 103.08 84.37 103.12 86.08 103.54C97.29 106.37 108.5 109.29 119.66 112.25C120.91 112.58 122.2 113.16 123.16 114C125.58 116.04 124.83 119.25 121.75 120.04C120.54 120.33 119.16 120.2 117.54 120.33Z" fill="#CD4631" fill-opacity="1.000000" fill-rule="nonzero"/>
	<path id="Vector" d="M0.45 8.62C0.62 6.66 1.04 4.7 1.54 2.79C2 1.08 3.16 -0.13 5.04 -0.3C6.62 -0.42 8.33 1.16 8.58 3.24C8.91 6.04 9.2 8.87 9.08 11.66C8.7 20.08 8.16 28.54 7.58 36.95C7.37 39.74 7 42.54 6.54 45.33C6.37 46.29 6.04 47.29 5.5 48.04C4.04 50.16 1.37 49.99 0.33 47.7C-0.25 46.41 -0.5 44.83 -0.5 43.41C-0.71 38.74 -0.09 15.54 0.45 8.62Z" fill="#CD4631" fill-opacity="1.000000" fill-rule="nonzero"/>
</svg>
