<svg width="80.000000" height="80.000000" viewBox="0 0 80 80" fill="none" xmlns="http://www.w3.org/2000/svg" xmlns:xlink="http://www.w3.org/1999/xlink">
	<desc>
			Created with Pixso.
	</desc>
	<defs/>
	<path id="Vector" d="M76.92 49.34C72.87 48.3 66.06 47.19 63.54 45.47C62.5 44.76 62.63 43.98 62.81 43.43C62.99 42.92 64.03 42.39 64.67 42.43C66.11 42.48 67.55 42.79 68.94 43.18C72.02 44.02 75.08 44.89 78.1 45.89C79.71 46.42 80.22 47.64 79.29 48.43C78.74 48.88 78.23 49.34 76.92 49.34Z" fill="#CD4631" fill-opacity="1.000000" fill-rule="nonzero"/>
	<path id="Vector" d="M13.12 77.5C13.3 76.54 13.66 76.03 14.19 75.28C16.25 72.4 18.4 69.57 20.52 66.75C20.65 66.58 20.79 66.4 20.96 66.27C21.69 65.65 22.51 64.92 23.45 65.6C24.4 66.29 24.07 67.31 23.56 68.13C21.45 71.58 19.3 75 17.11 78.41C16.78 78.94 16.22 79.4 15.65 79.67C14.25 80.35 13.01 79.42 13.12 77.5Z" fill="#CD4631" fill-opacity="1.000000" fill-rule="nonzero"/>
	<path id="Vector" d="M58.67 76.87C58.67 77.69 58.03 78.27 57.56 78.36C56.92 78.49 56.38 78.38 55.46 77.76C55.15 77.56 54.97 77.07 54.79 76.68C53.46 73.8 52.11 70.94 50.82 68.04C50.49 67.33 50.16 66.51 50.21 65.76C50.27 65.09 50.69 64.12 51.23 63.89C51.76 63.65 52.47 63.58 53.31 64.4C53.62 64.69 53.91 65.18 54.11 65.64C55.43 68.68 56.74 71.72 58.02 74.79C58.25 75.37 58.4 76.01 58.67 76.87Z" fill="#CD4631" fill-opacity="1.000000" fill-rule="nonzero"/>
	<path id="Vector" d="M0.81 51.74C-0.03 51.51 -0.57 51.11 -0.7 50.56C-0.86 49.87 -0.52 48.94 -0.12 48.28C0.19 47.79 0.9 47.48 1.51 47.28C4.51 46.28 7.54 45.29 10.58 44.36C11.09 44.2 11.75 44.14 12.24 44.31C13.04 44.58 13.39 45.22 12.73 45.98C12.37 46.42 11.95 46.88 11.46 47.11C8.61 48.54 5.75 49.9 2.87 51.25C2.34 51.49 1.63 52 0.81 51.74Z" fill="#CD4631" fill-opacity="1.000000" fill-rule="nonzero"/>
	<path id="Vector" d="M62.57 20.46C62.17 20.3 61.83 19.64 61.81 19.21C61.79 18.6 61.97 17.88 62.34 17.38C64.03 15.05 65.82 12.75 67.59 10.47C67.84 10.13 68.19 9.85 68.53 9.58C69.32 8.98 70.34 8.45 71.03 9.36C71.43 9.89 71.56 11.24 71.18 11.7C68.84 14.54 66.33 17.26 63.83 19.97C63.63 20.21 63.23 20.59 62.57 20.46Z" fill="#CD4631" fill-opacity="1.000000" fill-rule="nonzero"/>
	<path id="Vector" d="M4.13 16.51C5.15 16.82 5.94 17 6.68 17.27C8.85 18.06 11.02 18.86 13.17 19.68C13.77 19.92 14.41 20.15 14.9 20.54C15.25 20.81 15.63 21.5 15.51 21.76C15.29 22.18 14.96 22.71 14.21 22.65C13.9 22.63 13.5 22.61 13.15 22.52C10.71 21.87 8.27 21.25 5.84 20.52C5.02 20.28 4.17 19.94 3.51 19.41C3.04 19.02 2.6 18.17 2.73 17.66C2.84 17.18 3.24 16.51 4.13 16.51Z" fill="#CD4631" fill-opacity="1.000000" fill-rule="nonzero"/>
	<path id="Vector" d="M37.49 8.96C37.47 9.18 37.45 9.4 37.38 9.6C37.07 10.49 36.87 11.49 35.61 11.4C34.28 11.31 34.23 10.22 34.25 9.33C34.3 7.17 34.5 5.02 34.66 2.85C34.74 2.07 34.83 1.27 35.05 0.52C35.27 -0.24 35.58 -1.03 36.63 -0.9C37.62 -0.77 37.95 -0.12 37.96 0.76C37.96 1.71 37.67 7.17 37.49 8.96Z" fill="#CD4631" fill-opacity="1.000000" fill-rule="nonzero"/>
</svg>
