<svg width="156.000000" height="217.000000" viewBox="0 0 156 217" fill="none" xmlns="http://www.w3.org/2000/svg" xmlns:xlink="http://www.w3.org/1999/xlink">
	<desc>
			Created with Pixso.
	</desc>
	<defs/>
	<path d="M61.33 131.98C61.87 135.3 62.22 138.61 62.52 141.93C62.65 143.49 62.78 145.05 62.91 146.61C62.91 147.25 62.89 147.91 62.88 148.57C62.86 149.14 62.84 149.73 62.82 150.31C62.73 152.85 62.64 155.44 62.91 157.89C62.91 159.41 65.66 161.54 67.23 161.54C68.8 161.54 71.55 159.71 72.34 158.19C73.83 155.87 73.9 153.28 74.58 150.67C74.62 150.54 74.65 150.4 74.69 150.27C75.37 147.94 76.03 145.61 76.68 143.27C79.76 132.12 82.58 120.82 86.48 109.74C88.45 103.95 92.77 98.77 97.09 93.59C99.05 90.84 102.98 88.4 106.91 87.19C107.47 87.03 108.02 86.88 108.57 86.73C116.67 84.52 124.8 82.98 133.63 83.83C136.3 84.15 138.86 84.39 141.42 84.58C142.37 84.65 143.33 84.72 144.28 84.79C144.58 84.8 144.87 84.82 145.17 84.84C145.32 84.85 145.48 84.86 145.64 84.87C145.66 84.87 145.68 84.88 145.7 84.88C146.64 84.94 147.6 84.99 148.56 85.05C151.71 85.36 155.24 85.05 155.24 82.31C155.24 80.79 153.28 78.65 151.71 77.13C150.53 76.21 148.56 75.91 146.6 75.61C145.61 75.5 144.63 75.38 143.66 75.26C143.09 75.18 142.53 75.11 141.97 75.04C137.78 74.48 133.74 73.94 129.7 74.39C122.14 75.15 115.12 74.21 108.66 72.27C107.4 71.89 106.16 71.48 104.95 71.03C93.16 66.46 83.73 59.45 84.12 47.87C84.12 40.86 84.91 33.86 85.3 26.85C85.4 25.33 85.49 23.83 85.58 22.34C85.72 20.09 85.86 17.87 86 15.64C86.06 14.69 86.12 13.74 86.18 12.78C86.2 12.55 86.21 12.33 86.22 12.1C86.25 11.68 86.28 11.26 86.3 10.84C86.33 10.43 86.35 10.01 86.38 9.6C86.41 9.05 86.45 8.5 86.48 7.95C86.48 7.57 86.51 7.18 86.53 6.8C86.6 5.68 86.67 4.6 86.09 3.69C84.91 2.16 82.94 0.03 81.37 0.03C79.8 -0.28 77.44 1.55 76.27 3.08C75.44 4.35 75.39 5.77 75.03 7.24C74.97 7.47 74.9 7.71 74.83 7.95C74.69 8.36 74.53 8.76 74.3 9.17C74.18 9.66 74.06 10.15 73.95 10.65C73.19 13.86 72.5 17.12 71.68 20.33C70.98 23.08 70.19 25.78 69.19 28.37C59.37 53.36 42.47 72.86 6.33 78.04C3.57 78.35 0.43 80.79 0.04 82.61C-0.31 84.26 1.55 86.39 3.07 88.13C3.24 88.33 3.41 88.52 3.57 88.71C4.75 89.93 7.11 90.84 9.08 91.15C9.41 91.2 9.74 91.25 10.07 91.31C10.38 91.37 10.7 91.42 11.01 91.48C23.8 93.95 33.55 100.61 43.65 106.99C53.87 113.39 59.37 121.93 61.33 131.98ZM34.08 84.98Q39.76 87.93 48.87 93.72Q50.38 94.68 51.09 95.13Q62.39 102.21 68.62 112.4Q69.39 113.66 70.08 114.97Q71.82 109.23 73.22 105.24Q75.99 97.09 86.06 84.95Q86.63 84.19 87.25 83.47Q88.89 81.56 90.88 79.95Q77.12 72.44 72.47 61.17Q71.31 58.36 70.72 55.31Q63.46 65.75 53.92 73.33Q44.99 80.41 34.08 84.98Z" fill="#81ADC8" fill-opacity="1.000000" fill-rule="evenodd"/>
	<path d="M119.43 185.69C119.61 186.86 119.74 188.04 119.85 189.21C119.91 189.9 119.97 190.59 120.03 191.27C120.03 191.74 120.01 192.21 119.99 192.69C119.96 193.66 119.93 194.65 120.03 195.58C120.03 196.16 121.08 196.98 121.68 196.98C122.28 196.98 123.33 196.28 123.63 195.7C124.23 194.77 124.23 193.72 124.53 192.67C124.79 191.78 125.04 190.89 125.29 190C125.9 187.79 126.48 185.57 127.11 183.35C127.69 181.29 128.31 179.23 129.03 177.19C129.78 174.98 131.43 173 133.08 171.02C133.31 170.71 133.59 170.41 133.93 170.13C134.72 169.46 135.78 168.9 136.84 168.58C140.14 167.64 143.44 166.95 147.04 167.3C147.13 167.31 147.23 167.32 147.32 167.33C148.61 167.48 149.85 167.57 151.11 167.66C151.22 167.67 151.33 167.67 151.45 167.68C151.51 167.68 151.57 167.69 151.63 167.69C151.63 167.69 151.64 167.69 151.65 167.69C152.01 167.72 152.37 167.74 152.74 167.76C153.94 167.88 155.3 167.76 155.3 166.71C155.3 166.13 154.55 165.32 153.94 164.73C153.49 164.39 152.74 164.27 151.99 164.15C151.39 164.09 150.81 164.01 150.23 163.93C149.41 163.83 148.62 163.72 147.83 163.66C147.06 163.61 146.3 163.6 145.54 163.69C142.09 164.04 138.94 163.45 136.08 162.41C135.19 162.06 134.33 161.68 133.53 161.25C130.3 159.53 128.01 157.1 128.13 153.56C128.13 153.35 128.13 153.15 128.14 152.94C128.17 150.47 128.44 148 128.58 145.53C128.63 144.72 128.68 143.93 128.73 143.14C128.77 142.51 128.81 141.88 128.85 141.25C128.88 140.8 128.9 140.35 128.93 139.89C128.94 139.74 128.95 139.57 128.96 139.41C128.97 139.26 128.98 139.1 128.99 138.94C129 138.73 129.02 138.52 129.03 138.31C129.03 138.16 129.04 138.02 129.05 137.87C129.08 137.44 129.1 137.03 128.88 136.68C128.43 136.1 127.68 135.28 127.08 135.28C126.48 135.17 125.58 135.87 125.13 136.45C124.81 136.93 124.79 137.48 124.66 138.04C124.63 138.13 124.61 138.22 124.58 138.31C124.53 138.47 124.46 138.62 124.38 138.78C124.3 139.09 124.23 139.41 124.15 139.73C124.09 139.98 124.04 140.22 123.98 140.47C123.83 141.13 123.68 141.79 123.52 142.45C123.22 143.7 122.88 144.94 122.43 146.11C121.78 147.76 121.05 149.35 120.21 150.86C117.12 156.44 112.6 160.92 105.43 163.42C104.76 163.65 104.07 163.87 103.35 164.06C103.32 164.07 103.29 164.08 103.26 164.09C102.96 164.17 102.66 164.25 102.36 164.32C101.12 164.63 99.8 164.88 98.41 165.08C97.36 165.2 96.16 166.13 96.01 166.83C95.88 167.46 96.59 168.27 97.17 168.94C97.24 169.01 97.3 169.09 97.36 169.16C97.81 169.62 98.71 169.97 99.46 170.09C100.67 170.28 101.8 170.56 102.89 170.92C103.69 171.19 104.47 171.5 105.22 171.84C107.87 173.03 110.24 174.61 112.67 176.14C115.78 178.09 117.74 180.55 118.79 183.41C119.06 184.14 119.27 184.9 119.43 185.69ZM121.92 173.44Q123.28 170.36 126.58 166.34Q123.79 164.28 122.21 161.69Q120.37 163.71 118.25 165.38Q116.52 166.76 114.6 167.91Q115.33 168.36 116.09 168.83Q116.66 169.2 116.92 169.36Q119.8 171.17 121.92 173.44Z" fill="#CD4631" fill-opacity="1.000000" fill-rule="evenodd"/>
	<path d="M32.48 209.09C32.54 209.46 32.59 209.83 32.63 210.2C32.72 210.99 32.78 211.77 32.85 212.55C32.85 212.83 32.84 213.13 32.83 213.42C32.81 214.02 32.78 214.63 32.85 215.21C32.85 215.57 33.5 216.07 33.87 216.07C34.24 216.07 34.89 215.64 35.07 215.28C35.44 214.71 35.44 214.06 35.63 213.41C35.89 212.51 36.14 211.61 36.39 210.7C36.83 209.06 37.27 207.41 37.78 205.77C37.98 205.12 38.19 204.48 38.41 203.84C38.84 202.59 39.74 201.45 40.67 200.33C40.75 200.23 40.83 200.13 40.92 200.03C41.38 199.38 42.31 198.81 43.24 198.52C45 198.02 46.77 197.63 48.65 197.67C48.95 197.68 49.24 197.7 49.54 197.73C50.41 197.83 51.22 197.9 52.06 197.95C52.13 197.96 52.2 197.96 52.27 197.97C52.3 197.97 52.34 197.97 52.38 197.97C52.38 197.97 52.39 197.97 52.39 197.97C52.61 197.99 52.84 198 53.07 198.02C53.81 198.09 54.65 198.02 54.65 197.37C54.65 197.01 54.18 196.5 53.81 196.14C53.53 195.93 53.07 195.86 52.6 195.79C52.23 195.75 51.87 195.7 51.51 195.65C50.62 195.53 49.76 195.42 48.9 195.47C48.8 195.48 48.71 195.49 48.62 195.5C46.48 195.71 44.53 195.35 42.77 194.71C41.78 194.32 40.85 193.86 40.08 193.3C39.12 192.61 38.39 191.77 38.06 190.73C37.91 190.27 37.84 189.78 37.86 189.24C37.86 187.58 38.04 185.93 38.13 184.27C38.14 184.15 38.15 184.03 38.16 183.9C38.2 183.13 38.25 182.38 38.3 181.63C38.32 181.35 38.33 181.07 38.35 180.79C38.36 180.69 38.36 180.6 38.37 180.5C38.38 180.4 38.38 180.3 38.39 180.2C38.4 180.07 38.4 179.94 38.41 179.81C38.41 179.72 38.42 179.63 38.42 179.54C38.44 179.28 38.46 179.02 38.32 178.81C38.04 178.45 37.58 177.94 37.21 177.94C36.84 177.87 36.28 178.3 36 178.66C35.81 178.96 35.79 179.3 35.71 179.65C35.69 179.7 35.68 179.76 35.66 179.81C35.63 179.91 35.59 180.01 35.54 180.1C35.49 180.3 35.44 180.49 35.4 180.69C35.36 180.84 35.33 181 35.29 181.15C35.12 181.91 34.95 182.68 34.73 183.43C34.61 183.84 34.48 184.24 34.33 184.63C33.71 186.21 32.97 187.69 32.06 189.04C32.02 189.11 31.97 189.17 31.93 189.24C31.9 189.27 31.88 189.31 31.85 189.35C30.26 191.6 28.16 193.47 25.28 194.76C24.73 195 24.17 195.22 23.57 195.42C23.22 195.54 22.85 195.65 22.48 195.75C22.3 195.8 22.12 195.85 21.93 195.89C21.16 196.08 20.35 196.24 19.49 196.36C18.84 196.43 18.1 197.01 18.01 197.44C17.92 197.83 18.36 198.33 18.72 198.74C18.76 198.79 18.8 198.83 18.84 198.88C19.12 199.17 19.67 199.38 20.14 199.45C21.27 199.63 22.3 199.95 23.27 200.35C23.9 200.61 24.5 200.91 25.08 201.23C26.19 201.84 27.24 202.52 28.3 203.2C29.68 204.06 30.69 205.08 31.39 206.24C31.92 207.12 32.28 208.07 32.48 209.09ZM33.73 199.78Q34.4 198.62 35.41 197.31Q34.66 196.66 34.07 195.93Q33.27 196.7 32.41 197.38Q31.95 197.75 31.46 198.1Q31.48 198.1 31.49 198.11Q32.71 198.88 33.73 199.78Z" fill="#000000" fill-opacity="1.000000" fill-rule="evenodd"/>
</svg>
