<svg width="629.000000" height="593.000000" viewBox="0 0 629 593" fill="none" xmlns="http://www.w3.org/2000/svg" xmlns:xlink="http://www.w3.org/1999/xlink">
	<desc>
			Created with Pixso.
	</desc>
	<defs/>
	<path d="M198.04 83.95C198.04 130.45 216.03 208.87 148.11 293.64C81.78 376.45 173.04 114.25 264.69 98.02C371.83 79.05 187.19 518.3 177.67 428.9C172.34 378.89 327.31 116.39 370.91 159.99C426.36 215.44 280.95 532.19 247 526.98C187.1 517.79 401.33 153.44 462.11 184.82C534.6 222.24 415.12 471.94 359.69 485.34C315.33 496.05 480.75 254.06 591.44 309.44" stroke="#000000" stroke-opacity="1.000000" stroke-width="8.000000" stroke-linecap="round"/>
	<path d="M602.66 291.24L602.09 295.28C601.9 296.6 603.02 297.73 604.34 297.55L620.06 295.37C622.18 295.07 623.21 297.87 621.42 299.03L609.74 306.58C608.38 307.45 608.57 309.49 610.06 310.11L618.01 313.39C619.84 314.14 619.58 316.81 617.64 317.2L612.44 318.24C611.26 318.48 610.56 319.69 610.93 320.83L612.41 325.32C612.97 327.04 611.15 328.56 609.56 327.71L603.22 324.29C601.59 323.41 599.74 325.02 600.4 326.75L603.89 336.02C604.64 338.03 602.13 339.66 600.6 338.14L590.74 328.36C590.11 327.73 589.13 327.6 588.35 328.04L577.23 334.33C575.38 335.38 573.39 333.19 574.6 331.44L581.15 322.06C581.75 321.2 581.59 320.02 580.78 319.36L569.36 310.07C567.9 308.88 568.74 306.52 570.62 306.52L579.42 306.52C580.41 306.52 581.25 305.79 581.4 304.8L582.77 295.24C583.07 293.17 585.94 292.89 586.64 294.86L588.87 301.18C589.45 302.81 591.67 303 592.51 301.49L598.94 289.98C600.02 288.05 602.98 289.05 602.66 291.24Z" fill="#CD4631" fill-opacity="1.000000" fill-rule="nonzero"/>
</svg>
