<svg width="146.000000" height="152.000000" viewBox="0 0 146 152" fill="none" xmlns="http://www.w3.org/2000/svg" xmlns:xlink="http://www.w3.org/1999/xlink">
	<desc>
			Created with Pixso.
	</desc>
	<defs/>
	<path id="Star 4" d="M61.04 4.55L64.63 39.47C65.03 43.34 69.44 45.37 72.63 43.15L108.87 18.03C113.41 14.89 119.02 20.18 116.15 24.9L98.59 53.71C96.79 56.67 98.39 60.52 101.75 61.34L141.67 71.03C146.58 72.22 146.98 79.05 142.24 80.8L101 95.99C97.83 97.15 96.65 101.02 98.62 103.77L114.05 125.28C117.3 129.8 111.99 135.52 107.23 132.62L79.28 115.59C76.32 113.79 72.47 115.39 71.65 118.75L64.71 147.32C63.37 152.86 55.33 152.37 54.67 146.71L49.71 104.6C49.24 100.59 44.51 98.68 41.39 101.25L14.36 123.46C9.8 127.21 3.57 121.54 6.87 116.65L32.08 79.26C34.44 75.76 31.78 71.07 27.57 71.29L4.65 72.51C-1.46 72.84 -2.88 64.12 3.01 62.48L22.54 57.05C26.13 56.05 27.48 51.66 25.07 48.82L7.79 28.45C4.03 24.02 9.39 17.75 14.34 20.77L36.71 34.4C39.67 36.2 43.52 34.6 44.34 31.24L50.98 3.87C52.34 -1.71 60.45 -1.16 61.04 4.55Z" fill="#000000" fill-opacity="1.000000" fill-rule="nonzero"/>
</svg>
